<svg width="559" height="63" viewBox="0 0 559 63" fill="none" xmlns="http://www.w3.org/2000/svg">
<path d="M104.828 35.6797H111.836C111.695 37.9766 111.062 40.0156 109.938 41.7969C108.828 43.5781 107.273 44.9688 105.273 45.9688C103.289 46.9688 100.898 47.4688 98.1016 47.4688C95.9141 47.4688 93.9531 47.0938 92.2188 46.3438C90.4844 45.5781 89 44.4844 87.7656 43.0625C86.5469 41.6406 85.6172 39.9219 84.9766 37.9062C84.3359 35.8906 84.0156 33.6328 84.0156 31.1328V28.7656C84.0156 26.2656 84.3438 24.0078 85 21.9922C85.6719 19.9609 86.625 18.2344 87.8594 16.8125C89.1094 15.3906 90.6016 14.2969 92.3359 13.5312C94.0703 12.7656 96.0078 12.3828 98.1484 12.3828C100.992 12.3828 103.391 12.8984 105.344 13.9297C107.312 14.9609 108.836 16.3828 109.914 18.1953C111.008 20.0078 111.664 22.0703 111.883 24.3828H104.852C104.773 23.0078 104.5 21.8438 104.031 20.8906C103.562 19.9219 102.852 19.1953 101.898 18.7109C100.961 18.2109 99.7109 17.9609 98.1484 17.9609C96.9766 17.9609 95.9531 18.1797 95.0781 18.6172C94.2031 19.0547 93.4688 19.7188 92.875 20.6094C92.2812 21.5 91.8359 22.625 91.5391 23.9844C91.2578 25.3281 91.1172 26.9062 91.1172 28.7188V31.1328C91.1172 32.8984 91.25 34.4531 91.5156 35.7969C91.7812 37.125 92.1875 38.25 92.7344 39.1719C93.2969 40.0781 94.0156 40.7656 94.8906 41.2344C95.7812 41.6875 96.8516 41.9141 98.1016 41.9141C99.5703 41.9141 100.781 41.6797 101.734 41.2109C102.688 40.7422 103.414 40.0469 103.914 39.125C104.43 38.2031 104.734 37.0547 104.828 35.6797ZM115.453 34.5781V34.0859C115.453 32.2266 115.719 30.5156 116.25 28.9531C116.781 27.375 117.555 26.0078 118.57 24.8516C119.586 23.6953 120.836 22.7969 122.32 22.1562C123.805 21.5 125.508 21.1719 127.43 21.1719C129.352 21.1719 131.062 21.5 132.562 22.1562C134.062 22.7969 135.32 23.6953 136.336 24.8516C137.367 26.0078 138.148 27.375 138.68 28.9531C139.211 30.5156 139.477 32.2266 139.477 34.0859V34.5781C139.477 36.4219 139.211 38.1328 138.68 39.7109C138.148 41.2734 137.367 42.6406 136.336 43.8125C135.32 44.9688 134.07 45.8672 132.586 46.5078C131.102 47.1484 129.398 47.4688 127.477 47.4688C125.555 47.4688 123.844 47.1484 122.344 46.5078C120.859 45.8672 119.602 44.9688 118.57 43.8125C117.555 42.6406 116.781 41.2734 116.25 39.7109C115.719 38.1328 115.453 36.4219 115.453 34.5781ZM122.203 34.0859V34.5781C122.203 35.6406 122.297 36.6328 122.484 37.5547C122.672 38.4766 122.969 39.2891 123.375 39.9922C123.797 40.6797 124.344 41.2188 125.016 41.6094C125.688 42 126.508 42.1953 127.477 42.1953C128.414 42.1953 129.219 42 129.891 41.6094C130.562 41.2188 131.102 40.6797 131.508 39.9922C131.914 39.2891 132.211 38.4766 132.398 37.5547C132.602 36.6328 132.703 35.6406 132.703 34.5781V34.0859C132.703 33.0547 132.602 32.0859 132.398 31.1797C132.211 30.2578 131.906 29.4453 131.484 28.7422C131.078 28.0234 130.539 27.4609 129.867 27.0547C129.195 26.6484 128.383 26.4453 127.43 26.4453C126.477 26.4453 125.664 26.6484 124.992 27.0547C124.336 27.4609 123.797 28.0234 123.375 28.7422C122.969 29.4453 122.672 30.2578 122.484 31.1797C122.297 32.0859 122.203 33.0547 122.203 34.0859ZM159.125 40.9297V21.6406H165.875V47H159.523L159.125 40.9297ZM159.875 35.7266L161.867 35.6797C161.867 37.3672 161.672 38.9375 161.281 40.3906C160.891 41.8281 160.305 43.0781 159.523 44.1406C158.742 45.1875 157.758 46.0078 156.57 46.6016C155.383 47.1797 153.984 47.4688 152.375 47.4688C151.141 47.4688 150 47.2969 148.953 46.9531C147.922 46.5938 147.031 46.0391 146.281 45.2891C145.547 44.5234 144.969 43.5469 144.547 42.3594C144.141 41.1562 143.938 39.7109 143.938 38.0234V21.6406H150.688V38.0703C150.688 38.8203 150.773 39.4531 150.945 39.9688C151.133 40.4844 151.391 40.9062 151.719 41.2344C152.047 41.5625 152.43 41.7969 152.867 41.9375C153.32 42.0781 153.82 42.1484 154.367 42.1484C155.758 42.1484 156.852 41.8672 157.648 41.3047C158.461 40.7422 159.031 39.9766 159.359 39.0078C159.703 38.0234 159.875 36.9297 159.875 35.7266ZM178.281 27.1719V47H171.531V21.6406H177.883L178.281 27.1719ZM185.922 21.4766L185.805 27.7344C185.477 27.6875 185.078 27.6484 184.609 27.6172C184.156 27.5703 183.742 27.5469 183.367 27.5469C182.414 27.5469 181.586 27.6719 180.883 27.9219C180.195 28.1562 179.617 28.5078 179.148 28.9766C178.695 29.4453 178.352 30.0156 178.117 30.6875C177.898 31.3594 177.773 32.125 177.742 32.9844L176.383 32.5625C176.383 30.9219 176.547 29.4141 176.875 28.0391C177.203 26.6484 177.68 25.4375 178.305 24.4062C178.945 23.375 179.727 22.5781 180.648 22.0156C181.57 21.4531 182.625 21.1719 183.812 21.1719C184.188 21.1719 184.57 21.2031 184.961 21.2656C185.352 21.3125 185.672 21.3828 185.922 21.4766ZM203.32 39.9922C203.32 39.5078 203.18 39.0703 202.898 38.6797C202.617 38.2891 202.094 37.9297 201.328 37.6016C200.578 37.2578 199.492 36.9453 198.07 36.6641C196.789 36.3828 195.594 36.0312 194.484 35.6094C193.391 35.1719 192.438 34.6484 191.625 34.0391C190.828 33.4297 190.203 32.7109 189.75 31.8828C189.297 31.0391 189.07 30.0781 189.07 29C189.07 27.9375 189.297 26.9375 189.75 26C190.219 25.0625 190.883 24.2344 191.742 23.5156C192.617 22.7812 193.68 22.2109 194.93 21.8047C196.195 21.3828 197.617 21.1719 199.195 21.1719C201.398 21.1719 203.289 21.5234 204.867 22.2266C206.461 22.9297 207.68 23.8984 208.523 25.1328C209.383 26.3516 209.812 27.7422 209.812 29.3047H203.062C203.062 28.6484 202.922 28.0625 202.641 27.5469C202.375 27.0156 201.953 26.6016 201.375 26.3047C200.812 25.9922 200.078 25.8359 199.172 25.8359C198.422 25.8359 197.773 25.9688 197.227 26.2344C196.68 26.4844 196.258 26.8281 195.961 27.2656C195.68 27.6875 195.539 28.1562 195.539 28.6719C195.539 29.0625 195.617 29.4141 195.773 29.7266C195.945 30.0234 196.219 30.2969 196.594 30.5469C196.969 30.7969 197.453 31.0312 198.047 31.25C198.656 31.4531 199.406 31.6406 200.297 31.8125C202.125 32.1875 203.758 32.6797 205.195 33.2891C206.633 33.8828 207.773 34.6953 208.617 35.7266C209.461 36.7422 209.883 38.0781 209.883 39.7344C209.883 40.8594 209.633 41.8906 209.133 42.8281C208.633 43.7656 207.914 44.5859 206.977 45.2891C206.039 45.9766 204.914 46.5156 203.602 46.9062C202.305 47.2812 200.844 47.4688 199.219 47.4688C196.859 47.4688 194.859 47.0469 193.219 46.2031C191.594 45.3594 190.359 44.2891 189.516 42.9922C188.688 41.6797 188.273 40.3359 188.273 38.9609H194.672C194.703 39.8828 194.938 40.625 195.375 41.1875C195.828 41.75 196.398 42.1562 197.086 42.4062C197.789 42.6562 198.547 42.7812 199.359 42.7812C200.234 42.7812 200.961 42.6641 201.539 42.4297C202.117 42.1797 202.555 41.8516 202.852 41.4453C203.164 41.0234 203.32 40.5391 203.32 39.9922ZM226.438 47.4688C224.469 47.4688 222.703 47.1562 221.141 46.5312C219.578 45.8906 218.25 45.0078 217.156 43.8828C216.078 42.7578 215.25 41.4531 214.672 39.9688C214.094 38.4688 213.805 36.875 213.805 35.1875V34.25C213.805 32.3281 214.078 30.5703 214.625 28.9766C215.172 27.3828 215.953 26 216.969 24.8281C218 23.6562 219.25 22.7578 220.719 22.1328C222.188 21.4922 223.844 21.1719 225.688 21.1719C227.484 21.1719 229.078 21.4688 230.469 22.0625C231.859 22.6562 233.023 23.5 233.961 24.5938C234.914 25.6875 235.633 27 236.117 28.5312C236.602 30.0469 236.844 31.7344 236.844 33.5938V36.4062H216.688V31.9062H230.211V31.3906C230.211 30.4531 230.039 29.6172 229.695 28.8828C229.367 28.1328 228.867 27.5391 228.195 27.1016C227.523 26.6641 226.664 26.4453 225.617 26.4453C224.727 26.4453 223.961 26.6406 223.32 27.0312C222.68 27.4219 222.156 27.9688 221.75 28.6719C221.359 29.375 221.062 30.2031 220.859 31.1562C220.672 32.0938 220.578 33.125 220.578 34.25V35.1875C220.578 36.2031 220.719 37.1406 221 38C221.297 38.8594 221.711 39.6016 222.242 40.2266C222.789 40.8516 223.445 41.3359 224.211 41.6797C224.992 42.0234 225.875 42.1953 226.859 42.1953C228.078 42.1953 229.211 41.9609 230.258 41.4922C231.32 41.0078 232.234 40.2812 233 39.3125L236.281 42.875C235.75 43.6406 235.023 44.375 234.102 45.0781C233.195 45.7812 232.102 46.3594 230.82 46.8125C229.539 47.25 228.078 47.4688 226.438 47.4688Z" fill="#3C56BA"/>
<path d="M241.609 12.875H254.336C256.945 12.875 259.188 13.2656 261.062 14.0469C262.953 14.8281 264.406 15.9844 265.422 17.5156C266.438 19.0469 266.945 20.9297 266.945 23.1641C266.945 24.9922 266.633 26.5625 266.008 27.875C265.398 29.1719 264.531 30.2578 263.406 31.1328C262.297 31.9922 260.992 32.6797 259.492 33.1953L257.266 34.3672H246.203L246.156 28.8828H254.383C255.617 28.8828 256.641 28.6641 257.453 28.2266C258.266 27.7891 258.875 27.1797 259.281 26.3984C259.703 25.6172 259.914 24.7109 259.914 23.6797C259.914 22.5859 259.711 21.6406 259.305 20.8438C258.898 20.0469 258.281 19.4375 257.453 19.0156C256.625 18.5938 255.586 18.3828 254.336 18.3828H248.641V47H241.609V12.875ZM260.688 47L252.906 31.7891L260.336 31.7422L268.211 46.6719V47H260.688ZM284.109 47.4688C282.141 47.4688 280.375 47.1562 278.812 46.5312C277.25 45.8906 275.922 45.0078 274.828 43.8828C273.75 42.7578 272.922 41.4531 272.344 39.9688C271.766 38.4688 271.477 36.875 271.477 35.1875V34.25C271.477 32.3281 271.75 30.5703 272.297 28.9766C272.844 27.3828 273.625 26 274.641 24.8281C275.672 23.6562 276.922 22.7578 278.391 22.1328C279.859 21.4922 281.516 21.1719 283.359 21.1719C285.156 21.1719 286.75 21.4688 288.141 22.0625C289.531 22.6562 290.695 23.5 291.633 24.5938C292.586 25.6875 293.305 27 293.789 28.5312C294.273 30.0469 294.516 31.7344 294.516 33.5938V36.4062H274.359V31.9062H287.883V31.3906C287.883 30.4531 287.711 29.6172 287.367 28.8828C287.039 28.1328 286.539 27.5391 285.867 27.1016C285.195 26.6641 284.336 26.4453 283.289 26.4453C282.398 26.4453 281.633 26.6406 280.992 27.0312C280.352 27.4219 279.828 27.9688 279.422 28.6719C279.031 29.375 278.734 30.2031 278.531 31.1562C278.344 32.0938 278.25 33.125 278.25 34.25V35.1875C278.25 36.2031 278.391 37.1406 278.672 38C278.969 38.8594 279.383 39.6016 279.914 40.2266C280.461 40.8516 281.117 41.3359 281.883 41.6797C282.664 42.0234 283.547 42.1953 284.531 42.1953C285.75 42.1953 286.883 41.9609 287.93 41.4922C288.992 41.0078 289.906 40.2812 290.672 39.3125L293.953 42.875C293.422 43.6406 292.695 44.375 291.773 45.0781C290.867 45.7812 289.773 46.3594 288.492 46.8125C287.211 47.25 285.75 47.4688 284.109 47.4688ZM309.336 42.1953C310.164 42.1953 310.898 42.0391 311.539 41.7266C312.18 41.3984 312.68 40.9453 313.039 40.3672C313.414 39.7734 313.609 39.0781 313.625 38.2812H319.977C319.961 40.0625 319.484 41.6484 318.547 43.0391C317.609 44.4141 316.352 45.5 314.773 46.2969C313.195 47.0781 311.43 47.4688 309.477 47.4688C307.508 47.4688 305.789 47.1406 304.32 46.4844C302.867 45.8281 301.656 44.9219 300.688 43.7656C299.719 42.5938 298.992 41.2344 298.508 39.6875C298.023 38.125 297.781 36.4531 297.781 34.6719V33.9922C297.781 32.1953 298.023 30.5234 298.508 28.9766C298.992 27.4141 299.719 26.0547 300.688 24.8984C301.656 23.7266 302.867 22.8125 304.32 22.1562C305.773 21.5 307.477 21.1719 309.43 21.1719C311.508 21.1719 313.328 21.5703 314.891 22.3672C316.469 23.1641 317.703 24.3047 318.594 25.7891C319.5 27.2578 319.961 29 319.977 31.0156H313.625C313.609 30.1719 313.43 29.4062 313.086 28.7188C312.758 28.0312 312.273 27.4844 311.633 27.0781C311.008 26.6562 310.234 26.4453 309.312 26.4453C308.328 26.4453 307.523 26.6562 306.898 27.0781C306.273 27.4844 305.789 28.0469 305.445 28.7656C305.102 29.4688 304.859 30.2734 304.719 31.1797C304.594 32.0703 304.531 33.0078 304.531 33.9922V34.6719C304.531 35.6562 304.594 36.6016 304.719 37.5078C304.844 38.4141 305.078 39.2188 305.422 39.9219C305.781 40.625 306.273 41.1797 306.898 41.5859C307.523 41.9922 308.336 42.1953 309.336 42.1953ZM323.312 34.5781V34.0859C323.312 32.2266 323.578 30.5156 324.109 28.9531C324.641 27.375 325.414 26.0078 326.43 24.8516C327.445 23.6953 328.695 22.7969 330.18 22.1562C331.664 21.5 333.367 21.1719 335.289 21.1719C337.211 21.1719 338.922 21.5 340.422 22.1562C341.922 22.7969 343.18 23.6953 344.195 24.8516C345.227 26.0078 346.008 27.375 346.539 28.9531C347.07 30.5156 347.336 32.2266 347.336 34.0859V34.5781C347.336 36.4219 347.07 38.1328 346.539 39.7109C346.008 41.2734 345.227 42.6406 344.195 43.8125C343.18 44.9688 341.93 45.8672 340.445 46.5078C338.961 47.1484 337.258 47.4688 335.336 47.4688C333.414 47.4688 331.703 47.1484 330.203 46.5078C328.719 45.8672 327.461 44.9688 326.43 43.8125C325.414 42.6406 324.641 41.2734 324.109 39.7109C323.578 38.1328 323.312 36.4219 323.312 34.5781ZM330.062 34.0859V34.5781C330.062 35.6406 330.156 36.6328 330.344 37.5547C330.531 38.4766 330.828 39.2891 331.234 39.9922C331.656 40.6797 332.203 41.2188 332.875 41.6094C333.547 42 334.367 42.1953 335.336 42.1953C336.273 42.1953 337.078 42 337.75 41.6094C338.422 41.2188 338.961 40.6797 339.367 39.9922C339.773 39.2891 340.07 38.4766 340.258 37.5547C340.461 36.6328 340.562 35.6406 340.562 34.5781V34.0859C340.562 33.0547 340.461 32.0859 340.258 31.1797C340.07 30.2578 339.766 29.4453 339.344 28.7422C338.938 28.0234 338.398 27.4609 337.727 27.0547C337.055 26.6484 336.242 26.4453 335.289 26.4453C334.336 26.4453 333.523 26.6484 332.852 27.0547C332.195 27.4609 331.656 28.0234 331.234 28.7422C330.828 29.4453 330.531 30.2578 330.344 31.1797C330.156 32.0859 330.062 33.0547 330.062 34.0859ZM358.734 26.8906V47H351.961V21.6406H358.312L358.734 26.8906ZM357.797 33.4297H355.922C355.922 31.6641 356.133 30.0391 356.555 28.5547C356.992 27.0547 357.625 25.7578 358.453 24.6641C359.297 23.5547 360.336 22.6953 361.57 22.0859C362.805 21.4766 364.234 21.1719 365.859 21.1719C366.984 21.1719 368.016 21.3438 368.953 21.6875C369.891 22.0156 370.695 22.5391 371.367 23.2578C372.055 23.9609 372.586 24.8828 372.961 26.0234C373.336 27.1484 373.523 28.5 373.523 30.0781V47H366.773V30.8281C366.773 29.6719 366.617 28.7812 366.305 28.1562C365.992 27.5312 365.547 27.0938 364.969 26.8438C364.406 26.5938 363.727 26.4688 362.93 26.4688C362.055 26.4688 361.289 26.6484 360.633 27.0078C359.992 27.3672 359.461 27.8672 359.039 28.5078C358.617 29.1328 358.305 29.8672 358.102 30.7109C357.898 31.5547 357.797 32.4609 357.797 33.4297ZM372.891 32.6562L370.477 32.9609C370.477 31.3047 370.68 29.7656 371.086 28.3438C371.508 26.9219 372.125 25.6719 372.938 24.5938C373.766 23.5156 374.789 22.6797 376.008 22.0859C377.227 21.4766 378.633 21.1719 380.227 21.1719C381.445 21.1719 382.555 21.3516 383.555 21.7109C384.555 22.0547 385.406 22.6094 386.109 23.375C386.828 24.125 387.375 25.1094 387.75 26.3281C388.141 27.5469 388.336 29.0391 388.336 30.8047V47H381.562V30.8047C381.562 29.6328 381.406 28.7422 381.094 28.1328C380.797 27.5078 380.359 27.0781 379.781 26.8438C379.219 26.5938 378.547 26.4688 377.766 26.4688C376.953 26.4688 376.242 26.6328 375.633 26.9609C375.023 27.2734 374.516 27.7109 374.109 28.2734C373.703 28.8359 373.398 29.4922 373.195 30.2422C372.992 30.9766 372.891 31.7812 372.891 32.6562ZM400.812 26.8906V47H394.039V21.6406H400.391L400.812 26.8906ZM399.875 33.4297H398C398 31.6641 398.211 30.0391 398.633 28.5547C399.07 27.0547 399.703 25.7578 400.531 24.6641C401.375 23.5547 402.414 22.6953 403.648 22.0859C404.883 21.4766 406.312 21.1719 407.938 21.1719C409.062 21.1719 410.094 21.3438 411.031 21.6875C411.969 22.0156 412.773 22.5391 413.445 23.2578C414.133 23.9609 414.664 24.8828 415.039 26.0234C415.414 27.1484 415.602 28.5 415.602 30.0781V47H408.852V30.8281C408.852 29.6719 408.695 28.7812 408.383 28.1562C408.07 27.5312 407.625 27.0938 407.047 26.8438C406.484 26.5938 405.805 26.4688 405.008 26.4688C404.133 26.4688 403.367 26.6484 402.711 27.0078C402.07 27.3672 401.539 27.8672 401.117 28.5078C400.695 29.1328 400.383 29.8672 400.18 30.7109C399.977 31.5547 399.875 32.4609 399.875 33.4297ZM414.969 32.6562L412.555 32.9609C412.555 31.3047 412.758 29.7656 413.164 28.3438C413.586 26.9219 414.203 25.6719 415.016 24.5938C415.844 23.5156 416.867 22.6797 418.086 22.0859C419.305 21.4766 420.711 21.1719 422.305 21.1719C423.523 21.1719 424.633 21.3516 425.633 21.7109C426.633 22.0547 427.484 22.6094 428.188 23.375C428.906 24.125 429.453 25.1094 429.828 26.3281C430.219 27.5469 430.414 29.0391 430.414 30.8047V47H423.641V30.8047C423.641 29.6328 423.484 28.7422 423.172 28.1328C422.875 27.5078 422.438 27.0781 421.859 26.8438C421.297 26.5938 420.625 26.4688 419.844 26.4688C419.031 26.4688 418.32 26.6328 417.711 26.9609C417.102 27.2734 416.594 27.7109 416.188 28.2734C415.781 28.8359 415.477 29.4922 415.273 30.2422C415.07 30.9766 414.969 31.7812 414.969 32.6562ZM447.812 47.4688C445.844 47.4688 444.078 47.1562 442.516 46.5312C440.953 45.8906 439.625 45.0078 438.531 43.8828C437.453 42.7578 436.625 41.4531 436.047 39.9688C435.469 38.4688 435.18 36.875 435.18 35.1875V34.25C435.18 32.3281 435.453 30.5703 436 28.9766C436.547 27.3828 437.328 26 438.344 24.8281C439.375 23.6562 440.625 22.7578 442.094 22.1328C443.562 21.4922 445.219 21.1719 447.062 21.1719C448.859 21.1719 450.453 21.4688 451.844 22.0625C453.234 22.6562 454.398 23.5 455.336 24.5938C456.289 25.6875 457.008 27 457.492 28.5312C457.977 30.0469 458.219 31.7344 458.219 33.5938V36.4062H438.062V31.9062H451.586V31.3906C451.586 30.4531 451.414 29.6172 451.07 28.8828C450.742 28.1328 450.242 27.5391 449.57 27.1016C448.898 26.6641 448.039 26.4453 446.992 26.4453C446.102 26.4453 445.336 26.6406 444.695 27.0312C444.055 27.4219 443.531 27.9688 443.125 28.6719C442.734 29.375 442.438 30.2031 442.234 31.1562C442.047 32.0938 441.953 33.125 441.953 34.25V35.1875C441.953 36.2031 442.094 37.1406 442.375 38C442.672 38.8594 443.086 39.6016 443.617 40.2266C444.164 40.8516 444.82 41.3359 445.586 41.6797C446.367 42.0234 447.25 42.1953 448.234 42.1953C449.453 42.1953 450.586 41.9609 451.633 41.4922C452.695 41.0078 453.609 40.2812 454.375 39.3125L457.656 42.875C457.125 43.6406 456.398 44.375 455.477 45.0781C454.57 45.7812 453.477 46.3594 452.195 46.8125C450.914 47.25 449.453 47.4688 447.812 47.4688ZM469.172 27.0547V47H462.422V21.6406H468.75L469.172 27.0547ZM468.188 33.4297H466.359C466.359 31.5547 466.602 29.8672 467.086 28.3672C467.57 26.8516 468.25 25.5625 469.125 24.5C470 23.4219 471.039 22.6016 472.242 22.0391C473.461 21.4609 474.82 21.1719 476.32 21.1719C477.508 21.1719 478.594 21.3438 479.578 21.6875C480.562 22.0312 481.406 22.5781 482.109 23.3281C482.828 24.0781 483.375 25.0703 483.75 26.3047C484.141 27.5391 484.336 29.0469 484.336 30.8281V47H477.539V30.8047C477.539 29.6797 477.383 28.8047 477.07 28.1797C476.758 27.5547 476.297 27.1172 475.688 26.8672C475.094 26.6016 474.359 26.4688 473.484 26.4688C472.578 26.4688 471.789 26.6484 471.117 27.0078C470.461 27.3672 469.914 27.8672 469.477 28.5078C469.055 29.1328 468.734 29.8672 468.516 30.7109C468.297 31.5547 468.188 32.4609 468.188 33.4297ZM504.945 41.4688V11H511.742V47H505.625L504.945 41.4688ZM488.914 34.625V34.1328C488.914 32.1953 489.133 30.4375 489.57 28.8594C490.008 27.2656 490.648 25.8984 491.492 24.7578C492.336 23.6172 493.375 22.7344 494.609 22.1094C495.844 21.4844 497.25 21.1719 498.828 21.1719C500.312 21.1719 501.609 21.4844 502.719 22.1094C503.844 22.7344 504.797 23.625 505.578 24.7812C506.375 25.9219 507.016 27.2734 507.5 28.8359C507.984 30.3828 508.336 32.0781 508.555 33.9219V35C508.336 36.7656 507.984 38.4062 507.5 39.9219C507.016 41.4375 506.375 42.7656 505.578 43.9062C504.797 45.0312 503.844 45.9062 502.719 46.5312C501.594 47.1562 500.281 47.4688 498.781 47.4688C497.203 47.4688 495.797 47.1484 494.562 46.5078C493.344 45.8672 492.312 44.9688 491.469 43.8125C490.641 42.6562 490.008 41.2969 489.57 39.7344C489.133 38.1719 488.914 36.4688 488.914 34.625ZM495.664 34.1328V34.625C495.664 35.6719 495.742 36.6484 495.898 37.5547C496.07 38.4609 496.344 39.2656 496.719 39.9688C497.109 40.6562 497.609 41.1953 498.219 41.5859C498.844 41.9609 499.602 42.1484 500.492 42.1484C501.648 42.1484 502.602 41.8906 503.352 41.375C504.102 40.8438 504.672 40.1172 505.062 39.1953C505.469 38.2734 505.703 37.2109 505.766 36.0078V32.9375C505.719 31.9531 505.578 31.0703 505.344 30.2891C505.125 29.4922 504.797 28.8125 504.359 28.25C503.938 27.6875 503.406 27.25 502.766 26.9375C502.141 26.625 501.398 26.4688 500.539 26.4688C499.664 26.4688 498.914 26.6719 498.289 27.0781C497.664 27.4688 497.156 28.0078 496.766 28.6953C496.391 29.3828 496.109 30.1953 495.922 31.1328C495.75 32.0547 495.664 33.0547 495.664 34.1328ZM529.188 47.4688C527.219 47.4688 525.453 47.1562 523.891 46.5312C522.328 45.8906 521 45.0078 519.906 43.8828C518.828 42.7578 518 41.4531 517.422 39.9688C516.844 38.4688 516.555 36.875 516.555 35.1875V34.25C516.555 32.3281 516.828 30.5703 517.375 28.9766C517.922 27.3828 518.703 26 519.719 24.8281C520.75 23.6562 522 22.7578 523.469 22.1328C524.938 21.4922 526.594 21.1719 528.438 21.1719C530.234 21.1719 531.828 21.4688 533.219 22.0625C534.609 22.6562 535.773 23.5 536.711 24.5938C537.664 25.6875 538.383 27 538.867 28.5312C539.352 30.0469 539.594 31.7344 539.594 33.5938V36.4062H519.438V31.9062H532.961V31.3906C532.961 30.4531 532.789 29.6172 532.445 28.8828C532.117 28.1328 531.617 27.5391 530.945 27.1016C530.273 26.6641 529.414 26.4453 528.367 26.4453C527.477 26.4453 526.711 26.6406 526.07 27.0312C525.43 27.4219 524.906 27.9688 524.5 28.6719C524.109 29.375 523.812 30.2031 523.609 31.1562C523.422 32.0938 523.328 33.125 523.328 34.25V35.1875C523.328 36.2031 523.469 37.1406 523.75 38C524.047 38.8594 524.461 39.6016 524.992 40.2266C525.539 40.8516 526.195 41.3359 526.961 41.6797C527.742 42.0234 528.625 42.1953 529.609 42.1953C530.828 42.1953 531.961 41.9609 533.008 41.4922C534.07 41.0078 534.984 40.2812 535.75 39.3125L539.031 42.875C538.5 43.6406 537.773 44.375 536.852 45.0781C535.945 45.7812 534.852 46.3594 533.57 46.8125C532.289 47.25 530.828 47.4688 529.188 47.4688ZM550.688 27.1719V47H543.938V21.6406H550.289L550.688 27.1719ZM558.328 21.4766L558.211 27.7344C557.883 27.6875 557.484 27.6484 557.016 27.6172C556.562 27.5703 556.148 27.5469 555.773 27.5469C554.82 27.5469 553.992 27.6719 553.289 27.9219C552.602 28.1562 552.023 28.5078 551.555 28.9766C551.102 29.4453 550.758 30.0156 550.523 30.6875C550.305 31.3594 550.18 32.125 550.148 32.9844L548.789 32.5625C548.789 30.9219 548.953 29.4141 549.281 28.0391C549.609 26.6484 550.086 25.4375 550.711 24.4062C551.352 23.375 552.133 22.5781 553.055 22.0156C553.977 21.4531 555.031 21.1719 556.219 21.1719C556.594 21.1719 556.977 21.2031 557.367 21.2656C557.758 21.3125 558.078 21.3828 558.328 21.4766Z" fill="#FA9F00"/>
<g clip-path="url(#clip0_1074_1405)">
<path d="M43.0115 56.7386H46.1422C47.0032 56.7386 47.7076 56.0341 47.7076 55.1732V41.0849C47.7076 40.2239 47.0032 39.5195 46.1422 39.5195H43.0115V56.7386ZM74.0527 45.5931C74.2249 45.2018 74.3188 44.7792 74.3188 44.3408V42.6503C74.3188 40.9283 72.91 39.5195 71.1881 39.5195H62.5786L64.0187 32.2406C64.097 31.8962 64.05 31.5205 63.8935 31.2074C63.5334 30.503 63.0795 29.8612 62.5159 29.2977L61.7959 28.562L51.7619 38.596C51.167 39.1908 50.8383 39.9891 50.8383 40.8188V53.0913C50.8383 55.0949 52.4819 56.7386 54.5013 56.7386H67.1964C68.2922 56.7386 69.3253 56.1594 69.8888 55.2202L74.0527 45.5931V45.5931Z" fill="#FB9B0E"/>
</g>
<g clip-path="url(#clip1_1074_1405)">
<path d="M10.2351 26.9797V35.1678L24.5642 42.9874L38.8934 35.1678V26.9797L24.5642 34.7993L10.2351 26.9797ZM24.5642 6.14105L2.04703 18.4232L24.5642 30.7053L42.9874 20.6544V34.7993H47.0814V18.4232L24.5642 6.14105Z" fill="#FB9B0E"/>
</g>
<defs>
<clipPath id="clip0_1074_1405">
<rect width="37.5688" height="37.5688" fill="white" transform="translate(39.8807 25.4312)"/>
</clipPath>
<clipPath id="clip1_1074_1405">
<rect width="49.1284" height="49.1284" fill="white"/>
</clipPath>
</defs>
</svg>
