<svg width="741" height="112" viewBox="0 0 741 112" fill="none" xmlns="http://www.w3.org/2000/svg">
<path d="M146.812 71.1406C146.812 69.9219 146.625 68.8281 146.25 67.8594C145.906 66.8594 145.25 65.9531 144.281 65.1406C143.312 64.2969 141.953 63.4688 140.203 62.6562C138.453 61.8438 136.188 61 133.406 60.125C130.312 59.125 127.375 58 124.594 56.75C121.844 55.5 119.406 54.0469 117.281 52.3906C115.188 50.7031 113.531 48.75 112.312 46.5312C111.125 44.3125 110.531 41.7344 110.531 38.7969C110.531 35.9531 111.156 33.375 112.406 31.0625C113.656 28.7188 115.406 26.7187 117.656 25.0625C119.906 23.375 122.562 22.0781 125.625 21.1719C128.719 20.2656 132.109 19.8125 135.797 19.8125C140.828 19.8125 145.219 20.7187 148.969 22.5312C152.719 24.3438 155.625 26.8281 157.688 29.9844C159.781 33.1406 160.828 36.75 160.828 40.8125H146.859C146.859 38.8125 146.438 37.0625 145.594 35.5625C144.781 34.0312 143.531 32.8281 141.844 31.9531C140.188 31.0781 138.094 30.6406 135.562 30.6406C133.125 30.6406 131.094 31.0156 129.469 31.7656C127.844 32.4844 126.625 33.4688 125.812 34.7188C125 35.9375 124.594 37.3125 124.594 38.8438C124.594 40 124.875 41.0469 125.438 41.9844C126.031 42.9219 126.906 43.7969 128.062 44.6094C129.219 45.4219 130.641 46.1875 132.328 46.9062C134.016 47.625 135.969 48.3281 138.188 49.0156C141.906 50.1406 145.172 51.4062 147.984 52.8125C150.828 54.2188 153.203 55.7969 155.109 57.5469C157.016 59.2969 158.453 61.2812 159.422 63.5C160.391 65.7188 160.875 68.2344 160.875 71.0469C160.875 74.0156 160.297 76.6719 159.141 79.0156C157.984 81.3594 156.312 83.3438 154.125 84.9688C151.938 86.5938 149.328 87.8281 146.297 88.6719C143.266 89.5156 139.875 89.9375 136.125 89.9375C132.75 89.9375 129.422 89.5 126.141 88.625C122.859 87.7188 119.875 86.3594 117.188 84.5469C114.531 82.7344 112.406 80.4219 110.812 77.6094C109.219 74.7969 108.422 71.4688 108.422 67.625H122.531C122.531 69.75 122.859 71.5469 123.516 73.0156C124.172 74.4844 125.094 75.6719 126.281 76.5781C127.5 77.4844 128.938 78.1406 130.594 78.5469C132.281 78.9531 134.125 79.1562 136.125 79.1562C138.562 79.1562 140.562 78.8125 142.125 78.125C143.719 77.4375 144.891 76.4844 145.641 75.2656C146.422 74.0469 146.812 72.6719 146.812 71.1406ZM192.938 38.2812V47.8438H163.406V38.2812H192.938ZM170.719 25.7656H184.219V73.7188C184.219 75.1875 184.406 76.3125 184.781 77.0938C185.188 77.875 185.781 78.4219 186.562 78.7344C187.344 79.0156 188.328 79.1562 189.516 79.1562C190.359 79.1562 191.109 79.125 191.766 79.0625C192.453 78.9688 193.031 78.875 193.5 78.7812L193.547 88.7188C192.391 89.0938 191.141 89.3906 189.797 89.6094C188.453 89.8281 186.969 89.9375 185.344 89.9375C182.375 89.9375 179.781 89.4531 177.562 88.4844C175.375 87.4844 173.688 85.8906 172.5 83.7031C171.312 81.5156 170.719 78.6406 170.719 75.0781V25.7656ZM229.125 76.8594V38.2812H242.625V89H229.922L229.125 76.8594ZM230.625 66.4531L234.609 66.3594C234.609 69.7344 234.219 72.875 233.438 75.7812C232.656 78.6562 231.484 81.1562 229.922 83.2812C228.359 85.375 226.391 87.0156 224.016 88.2031C221.641 89.3594 218.844 89.9375 215.625 89.9375C213.156 89.9375 210.875 89.5938 208.781 88.9062C206.719 88.1875 204.938 87.0781 203.438 85.5781C201.969 84.0469 200.812 82.0938 199.969 79.7188C199.156 77.3125 198.75 74.4219 198.75 71.0469V38.2812H212.25V71.1406C212.25 72.6406 212.422 73.9062 212.766 74.9375C213.141 75.9688 213.656 76.8125 214.312 77.4688C214.969 78.125 215.734 78.5938 216.609 78.875C217.516 79.1562 218.516 79.2969 219.609 79.2969C222.391 79.2969 224.578 78.7344 226.172 77.6094C227.797 76.4844 228.938 74.9531 229.594 73.0156C230.281 71.0469 230.625 68.8594 230.625 66.4531ZM281.391 77.9375V17H294.984V89H282.75L281.391 77.9375ZM249.328 64.25V63.2656C249.328 59.3906 249.766 55.875 250.641 52.7188C251.516 49.5312 252.797 46.7969 254.484 44.5156C256.172 42.2344 258.25 40.4688 260.719 39.2188C263.188 37.9688 266 37.3438 269.156 37.3438C272.125 37.3438 274.719 37.9688 276.938 39.2188C279.188 40.4688 281.094 42.25 282.656 44.5625C284.25 46.8438 285.531 49.5469 286.5 52.6719C287.469 55.7656 288.172 59.1562 288.609 62.8438V65C288.172 68.5312 287.469 71.8125 286.5 74.8438C285.531 77.875 284.25 80.5312 282.656 82.8125C281.094 85.0625 279.188 86.8125 276.938 88.0625C274.688 89.3125 272.062 89.9375 269.062 89.9375C265.906 89.9375 263.094 89.2969 260.625 88.0156C258.188 86.7344 256.125 84.9375 254.438 82.625C252.781 80.3125 251.516 77.5938 250.641 74.4688C249.766 71.3438 249.328 67.9375 249.328 64.25ZM262.828 63.2656V64.25C262.828 66.3438 262.984 68.2969 263.297 70.1094C263.641 71.9219 264.188 73.5312 264.938 74.9375C265.719 76.3125 266.719 77.3906 267.938 78.1719C269.188 78.9219 270.703 79.2969 272.484 79.2969C274.797 79.2969 276.703 78.7812 278.203 77.75C279.703 76.6875 280.844 75.2344 281.625 73.3906C282.438 71.5469 282.906 69.4219 283.031 67.0156V60.875C282.938 58.9062 282.656 57.1406 282.188 55.5781C281.75 53.9844 281.094 52.625 280.219 51.5C279.375 50.375 278.312 49.5 277.031 48.875C275.781 48.25 274.297 47.9375 272.578 47.9375C270.828 47.9375 269.328 48.3438 268.078 49.1562C266.828 49.9375 265.812 51.0156 265.031 52.3906C264.281 53.7656 263.719 55.3906 263.344 57.2656C263 59.1094 262.828 61.1094 262.828 63.2656ZM319.078 83.2812L332.531 38.2812H347.016L326.625 96.6406C326.188 97.9219 325.594 99.2969 324.844 100.766C324.125 102.234 323.141 103.625 321.891 104.938C320.672 106.281 319.125 107.375 317.25 108.219C315.406 109.062 313.141 109.484 310.453 109.484C309.172 109.484 308.125 109.406 307.312 109.25C306.5 109.094 305.531 108.875 304.406 108.594V98.7031C304.75 98.7031 305.109 98.7031 305.484 98.7031C305.859 98.7344 306.219 98.75 306.562 98.75C308.344 98.75 309.797 98.5469 310.922 98.1406C312.047 97.7344 312.953 97.1094 313.641 96.2656C314.328 95.4531 314.875 94.3906 315.281 93.0781L319.078 83.2812ZM313.453 38.2812L324.469 75.0312L326.391 89.3281L317.203 90.3125L298.969 38.2812H313.453Z" fill="#3C56BA"/>
<path d="M391.312 66.3594H405.328C405.047 70.9531 403.781 75.0312 401.531 78.5938C399.312 82.1562 396.203 84.9375 392.203 86.9375C388.234 88.9375 383.453 89.9375 377.859 89.9375C373.484 89.9375 369.562 89.1875 366.094 87.6875C362.625 86.1562 359.656 83.9688 357.188 81.125C354.75 78.2812 352.891 74.8438 351.609 70.8125C350.328 66.7812 349.688 62.2656 349.688 57.2656V52.5312C349.688 47.5312 350.344 43.0156 351.656 38.9844C353 34.9219 354.906 31.4688 357.375 28.625C359.875 25.7812 362.859 23.5938 366.328 22.0625C369.797 20.5312 373.672 19.7656 377.953 19.7656C383.641 19.7656 388.438 20.7969 392.344 22.8594C396.281 24.9219 399.328 27.7656 401.484 31.3906C403.672 35.0156 404.984 39.1406 405.422 43.7656H391.359C391.203 41.0156 390.656 38.6875 389.719 36.7812C388.781 34.8438 387.359 33.3906 385.453 32.4219C383.578 31.4219 381.078 30.9219 377.953 30.9219C375.609 30.9219 373.562 31.3594 371.812 32.2344C370.062 33.1094 368.594 34.4375 367.406 36.2188C366.219 38 365.328 40.25 364.734 42.9688C364.172 45.6562 363.891 48.8125 363.891 52.4375V57.2656C363.891 60.7969 364.156 63.9062 364.688 66.5938C365.219 69.25 366.031 71.5 367.125 73.3438C368.25 75.1562 369.688 76.5312 371.438 77.4688C373.219 78.375 375.359 78.8281 377.859 78.8281C380.797 78.8281 383.219 78.3594 385.125 77.4219C387.031 76.4844 388.484 75.0938 389.484 73.25C390.516 71.4062 391.125 69.1094 391.312 66.3594ZM410.062 64.1562V63.1719C410.062 59.4531 410.594 56.0312 411.656 52.9062C412.719 49.75 414.266 47.0156 416.297 44.7031C418.328 42.3906 420.828 40.5938 423.797 39.3125C426.766 38 430.172 37.3438 434.016 37.3438C437.859 37.3438 441.281 38 444.281 39.3125C447.281 40.5938 449.797 42.3906 451.828 44.7031C453.891 47.0156 455.453 49.75 456.516 52.9062C457.578 56.0312 458.109 59.4531 458.109 63.1719V64.1562C458.109 67.8438 457.578 71.2656 456.516 74.4219C455.453 77.5469 453.891 80.2812 451.828 82.625C449.797 84.9375 447.297 86.7344 444.328 88.0156C441.359 89.2969 437.953 89.9375 434.109 89.9375C430.266 89.9375 426.844 89.2969 423.844 88.0156C420.875 86.7344 418.359 84.9375 416.297 82.625C414.266 80.2812 412.719 77.5469 411.656 74.4219C410.594 71.2656 410.062 67.8438 410.062 64.1562ZM423.562 63.1719V64.1562C423.562 66.2812 423.75 68.2656 424.125 70.1094C424.5 71.9531 425.094 73.5781 425.906 74.9844C426.75 76.3594 427.844 77.4375 429.188 78.2188C430.531 79 432.172 79.3906 434.109 79.3906C435.984 79.3906 437.594 79 438.938 78.2188C440.281 77.4375 441.359 76.3594 442.172 74.9844C442.984 73.5781 443.578 71.9531 443.953 70.1094C444.359 68.2656 444.562 66.2812 444.562 64.1562V63.1719C444.562 61.1094 444.359 59.1719 443.953 57.3594C443.578 55.5156 442.969 53.8906 442.125 52.4844C441.312 51.0469 440.234 49.9219 438.891 49.1094C437.547 48.2969 435.922 47.8906 434.016 47.8906C432.109 47.8906 430.484 48.2969 429.141 49.1094C427.828 49.9219 426.75 51.0469 425.906 52.4844C425.094 53.8906 424.5 55.5156 424.125 57.3594C423.75 59.1719 423.562 61.1094 423.562 63.1719ZM478.406 48.7812V89H464.859V38.2812H477.562L478.406 48.7812ZM476.531 61.8594H472.781C472.781 58.3281 473.203 55.0781 474.047 52.1094C474.922 49.1094 476.188 46.5156 477.844 44.3281C479.531 42.1094 481.609 40.3906 484.078 39.1719C486.547 37.9531 489.406 37.3438 492.656 37.3438C494.906 37.3438 496.969 37.6875 498.844 38.375C500.719 39.0312 502.328 40.0781 503.672 41.5156C505.047 42.9219 506.109 44.7656 506.859 47.0469C507.609 49.2969 507.984 52 507.984 55.1562V89H494.484V56.6562C494.484 54.3438 494.172 52.5625 493.547 51.3125C492.922 50.0625 492.031 49.1875 490.875 48.6875C489.75 48.1875 488.391 47.9375 486.797 47.9375C485.047 47.9375 483.516 48.2969 482.203 49.0156C480.922 49.7344 479.859 50.7344 479.016 52.0156C478.172 53.2656 477.547 54.7344 477.141 56.4219C476.734 58.1094 476.531 59.9219 476.531 61.8594ZM506.719 60.3125L501.891 60.9219C501.891 57.6094 502.297 54.5312 503.109 51.6875C503.953 48.8438 505.188 46.3438 506.812 44.1875C508.469 42.0312 510.516 40.3594 512.953 39.1719C515.391 37.9531 518.203 37.3438 521.391 37.3438C523.828 37.3438 526.047 37.7031 528.047 38.4219C530.047 39.1094 531.75 40.2188 533.156 41.75C534.594 43.25 535.688 45.2188 536.438 47.6562C537.219 50.0938 537.609 53.0781 537.609 56.6094V89H524.062V56.6094C524.062 54.2656 523.75 52.4844 523.125 51.2656C522.531 50.0156 521.656 49.1562 520.5 48.6875C519.375 48.1875 518.031 47.9375 516.469 47.9375C514.844 47.9375 513.422 48.2656 512.203 48.9219C510.984 49.5469 509.969 50.4219 509.156 51.5469C508.344 52.6719 507.734 53.9844 507.328 55.4844C506.922 56.9531 506.719 58.5625 506.719 60.3125ZM560.062 48.0312V108.5H546.562V38.2812H559.078L560.062 48.0312ZM592.172 63.0781V64.0625C592.172 67.75 591.734 71.1719 590.859 74.3281C590.016 77.4844 588.766 80.2344 587.109 82.5781C585.453 84.8906 583.391 86.7031 580.922 88.0156C578.484 89.2969 575.672 89.9375 572.484 89.9375C569.391 89.9375 566.703 89.3125 564.422 88.0625C562.141 86.8125 560.219 85.0625 558.656 82.8125C557.125 80.5312 555.891 77.8906 554.953 74.8906C554.016 71.8906 553.297 68.6719 552.797 65.2344V62.6562C553.297 58.9688 554.016 55.5938 554.953 52.5312C555.891 49.4375 557.125 46.7656 558.656 44.5156C560.219 42.2344 562.125 40.4688 564.375 39.2188C566.656 37.9688 569.328 37.3438 572.391 37.3438C575.609 37.3438 578.438 37.9531 580.875 39.1719C583.344 40.3906 585.406 42.1406 587.062 44.4219C588.75 46.7031 590.016 49.4219 590.859 52.5781C591.734 55.7344 592.172 59.2344 592.172 63.0781ZM578.625 64.0625V63.0781C578.625 60.9219 578.438 58.9375 578.062 57.125C577.719 55.2812 577.156 53.6719 576.375 52.2969C575.625 50.9219 574.625 49.8594 573.375 49.1094C572.156 48.3281 570.672 47.9375 568.922 47.9375C567.078 47.9375 565.5 48.2344 564.188 48.8281C562.906 49.4219 561.859 50.2812 561.047 51.4062C560.234 52.5312 559.625 53.875 559.219 55.4375C558.812 57 558.562 58.7656 558.469 60.7344V67.25C558.625 69.5625 559.062 71.6406 559.781 73.4844C560.5 75.2969 561.609 76.7344 563.109 77.7969C564.609 78.8594 566.578 79.3906 569.016 79.3906C570.797 79.3906 572.297 79 573.516 78.2188C574.734 77.4062 575.719 76.2969 576.469 74.8906C577.25 73.4844 577.797 71.8594 578.109 70.0156C578.453 68.1719 578.625 66.1875 578.625 64.0625ZM626.438 77.5625V54.9688C626.438 53.3438 626.172 51.9531 625.641 50.7969C625.109 49.6094 624.281 48.6875 623.156 48.0312C622.062 47.375 620.641 47.0469 618.891 47.0469C617.391 47.0469 616.094 47.3125 615 47.8438C613.906 48.3438 613.062 49.0781 612.469 50.0469C611.875 50.9844 611.578 52.0938 611.578 53.375H598.078C598.078 51.2188 598.578 49.1719 599.578 47.2344C600.578 45.2969 602.031 43.5938 603.938 42.125C605.844 40.625 608.109 39.4531 610.734 38.6094C613.391 37.7656 616.359 37.3438 619.641 37.3438C623.578 37.3438 627.078 38 630.141 39.3125C633.203 40.625 635.609 42.5938 637.359 45.2188C639.141 47.8438 640.031 51.125 640.031 55.0625V76.7656C640.031 79.5469 640.203 81.8281 640.547 83.6094C640.891 85.3594 641.391 86.8906 642.047 88.2031V89H628.406C627.75 87.625 627.25 85.9062 626.906 83.8438C626.594 81.75 626.438 79.6562 626.438 77.5625ZM628.219 58.1094L628.312 65.75H620.766C618.984 65.75 617.438 65.9531 616.125 66.3594C614.812 66.7656 613.734 67.3438 612.891 68.0938C612.047 68.8125 611.422 69.6562 611.016 70.625C610.641 71.5938 610.453 72.6562 610.453 73.8125C610.453 74.9688 610.719 76.0156 611.25 76.9531C611.781 77.8594 612.547 78.5781 613.547 79.1094C614.547 79.6094 615.719 79.8594 617.062 79.8594C619.094 79.8594 620.859 79.4531 622.359 78.6406C623.859 77.8281 625.016 76.8281 625.828 75.6406C626.672 74.4531 627.109 73.3281 627.141 72.2656L630.703 77.9844C630.203 79.2656 629.516 80.5938 628.641 81.9688C627.797 83.3438 626.719 84.6406 625.406 85.8594C624.094 87.0469 622.516 88.0312 620.672 88.8125C618.828 89.5625 616.641 89.9375 614.109 89.9375C610.891 89.9375 607.969 89.2969 605.344 88.0156C602.75 86.7031 600.688 84.9062 599.156 82.625C597.656 80.3125 596.906 77.6875 596.906 74.75C596.906 72.0938 597.406 69.7344 598.406 67.6719C599.406 65.6094 600.875 63.875 602.812 62.4688C604.781 61.0312 607.234 59.9531 610.172 59.2344C613.109 58.4844 616.516 58.1094 620.391 58.1094H628.219ZM676.359 74.9844C676.359 74.0156 676.078 73.1406 675.516 72.3594C674.953 71.5781 673.906 70.8594 672.375 70.2031C670.875 69.5156 668.703 68.8906 665.859 68.3281C663.297 67.7656 660.906 67.0625 658.688 66.2188C656.5 65.3438 654.594 64.2969 652.969 63.0781C651.375 61.8594 650.125 60.4219 649.219 58.7656C648.312 57.0781 647.859 55.1562 647.859 53C647.859 50.875 648.312 48.875 649.219 47C650.156 45.125 651.484 43.4688 653.203 42.0312C654.953 40.5625 657.078 39.4219 659.578 38.6094C662.109 37.7656 664.953 37.3438 668.109 37.3438C672.516 37.3438 676.297 38.0469 679.453 39.4531C682.641 40.8594 685.078 42.7969 686.766 45.2656C688.484 47.7031 689.344 50.4844 689.344 53.6094H675.844C675.844 52.2969 675.562 51.125 675 50.0938C674.469 49.0312 673.625 48.2031 672.469 47.6094C671.344 46.9844 669.875 46.6719 668.062 46.6719C666.562 46.6719 665.266 46.9375 664.172 47.4688C663.078 47.9688 662.234 48.6562 661.641 49.5312C661.078 50.375 660.797 51.3125 660.797 52.3438C660.797 53.125 660.953 53.8281 661.266 54.4531C661.609 55.0469 662.156 55.5938 662.906 56.0938C663.656 56.5938 664.625 57.0625 665.812 57.5C667.031 57.9062 668.531 58.2812 670.312 58.625C673.969 59.375 677.234 60.3594 680.109 61.5781C682.984 62.7656 685.266 64.3906 686.953 66.4531C688.641 68.4844 689.484 71.1562 689.484 74.4688C689.484 76.7188 688.984 78.7812 687.984 80.6562C686.984 82.5312 685.547 84.1719 683.672 85.5781C681.797 86.9531 679.547 88.0312 676.922 88.8125C674.328 89.5625 671.406 89.9375 668.156 89.9375C663.438 89.9375 659.438 89.0938 656.156 87.4062C652.906 85.7188 650.438 83.5781 648.75 80.9844C647.094 78.3594 646.266 75.6719 646.266 72.9219H659.062C659.125 74.7656 659.594 76.25 660.469 77.375C661.375 78.5 662.516 79.3125 663.891 79.8125C665.297 80.3125 666.812 80.5625 668.438 80.5625C670.188 80.5625 671.641 80.3281 672.797 79.8594C673.953 79.3594 674.828 78.7031 675.422 77.8906C676.047 77.0469 676.359 76.0781 676.359 74.9844ZM724.172 74.9844C724.172 74.0156 723.891 73.1406 723.328 72.3594C722.766 71.5781 721.719 70.8594 720.188 70.2031C718.688 69.5156 716.516 68.8906 713.672 68.3281C711.109 67.7656 708.719 67.0625 706.5 66.2188C704.312 65.3438 702.406 64.2969 700.781 63.0781C699.188 61.8594 697.938 60.4219 697.031 58.7656C696.125 57.0781 695.672 55.1562 695.672 53C695.672 50.875 696.125 48.875 697.031 47C697.969 45.125 699.297 43.4688 701.016 42.0312C702.766 40.5625 704.891 39.4219 707.391 38.6094C709.922 37.7656 712.766 37.3438 715.922 37.3438C720.328 37.3438 724.109 38.0469 727.266 39.4531C730.453 40.8594 732.891 42.7969 734.578 45.2656C736.297 47.7031 737.156 50.4844 737.156 53.6094H723.656C723.656 52.2969 723.375 51.125 722.812 50.0938C722.281 49.0312 721.438 48.2031 720.281 47.6094C719.156 46.9844 717.688 46.6719 715.875 46.6719C714.375 46.6719 713.078 46.9375 711.984 47.4688C710.891 47.9688 710.047 48.6562 709.453 49.5312C708.891 50.375 708.609 51.3125 708.609 52.3438C708.609 53.125 708.766 53.8281 709.078 54.4531C709.422 55.0469 709.969 55.5938 710.719 56.0938C711.469 56.5938 712.438 57.0625 713.625 57.5C714.844 57.9062 716.344 58.2812 718.125 58.625C721.781 59.375 725.047 60.3594 727.922 61.5781C730.797 62.7656 733.078 64.3906 734.766 66.4531C736.453 68.4844 737.297 71.1562 737.297 74.4688C737.297 76.7188 736.797 78.7812 735.797 80.6562C734.797 82.5312 733.359 84.1719 731.484 85.5781C729.609 86.9531 727.359 88.0312 724.734 88.8125C722.141 89.5625 719.219 89.9375 715.969 89.9375C711.25 89.9375 707.25 89.0938 703.969 87.4062C700.719 85.7188 698.25 83.5781 696.562 80.9844C694.906 78.3594 694.078 75.6719 694.078 72.9219H706.875C706.938 74.7656 707.406 76.25 708.281 77.375C709.188 78.5 710.328 79.3125 711.703 79.8125C713.109 80.3125 714.625 80.5625 716.25 80.5625C718 80.5625 719.453 80.3281 720.609 79.8594C721.766 79.3594 722.641 78.7031 723.234 77.8906C723.859 77.0469 724.172 76.0781 724.172 74.9844Z" fill="#FA9F00"/>
<path d="M48.5006 51.0538C46.0352 51.0538 44.0548 53.0343 44.0548 55.4997C44.0548 57.9651 46.0352 59.9455 48.5006 59.9455C50.9661 59.9455 52.9465 57.9651 52.9465 55.4997C52.9465 53.0343 50.9661 51.0538 48.5006 51.0538ZM48.5006 15.083C26.1907 15.083 8.08398 33.1897 8.08398 55.4997C8.08398 77.8097 26.1907 95.9163 48.5006 95.9163C70.8106 95.9163 88.9173 77.8097 88.9173 55.4997C88.9173 33.1897 70.8106 15.083 48.5006 15.083ZM57.3519 64.3509L24.2507 79.7497L39.6494 46.6484L72.7506 31.2497L57.3519 64.3509Z" fill="#FB9B0E"/>
</svg>
