<svg width="220" height="81" viewBox="0 0 220 81" fill="none" xmlns="http://www.w3.org/2000/svg">
<path d="M122.967 49.3873V42.7007H109.939C106.404 42.7007 105.212 41.8168 105.212 38.7425V33.4008H117.087L117.625 26.7526H105.212V17.7602H122.967V11.0735H97.7188V39.2805C97.7188 46.851 100.832 49.3873 109.401 49.3873H122.967ZM153.902 49.3873V42.7007H142.489C138.953 42.7007 137.762 41.8168 137.762 38.7425V11.0735H130.268V38.7425C130.268 46.313 133.919 49.3873 142.489 49.3873H153.902ZM188.911 49.3873L176.652 14.3016C175.691 11.5731 174.462 11.0735 172.732 11.0735C170.888 11.0735 169.62 11.7268 168.467 14.3016L156.208 49.3873H164.009L166.123 42.7775H178.958L181.11 49.3873H188.911ZM177.229 36.4752H168.006L172.732 21.2957L177.229 36.4752ZM220 38.0892C220 31.1335 216.042 27.8671 209.74 27.0216L203.591 26.3683C201.17 26.0225 198.941 24.639 198.941 22.1027C198.941 19.4895 201.4 17.2606 205.935 17.2606C208.433 17.2606 211.469 18.1829 212.199 21.949L218.886 21.6415C218.886 15.1086 213.275 10.7661 206.127 10.7661C197.327 10.7661 191.716 15.5313 191.716 22.3717C191.716 28.9815 195.982 32.2095 201.9 33.0934L208.126 33.7467C210.931 34.1694 212.699 35.6297 212.699 38.3198C212.699 41.3557 210.393 43.0465 205.973 43.0465C202.438 43.0465 198.019 41.0867 198.019 36.8979L191.217 37.2438C191.217 46.5436 200.055 49.6948 205.858 49.6948C213.89 49.6948 220 45.506 220 38.0892Z" fill="url(#paint0_linear)"/>
<path d="M55.4925 21.6458C48.3589 11.7797 34.5788 9.56453 24.7118 16.6982C14.8457 23.8318 12.6305 37.6137 19.7642 47.4798C26.0803 56.2164 37.6078 58.948 47.0159 54.5085C46.9119 54.8488 46.9594 55.232 47.1847 55.5458C47.3689 55.7996 47.6461 55.9699 47.9557 56.0195C48.2653 56.0691 48.5818 55.9939 48.8361 55.8104L64.9536 80.1199C65.5083 80.8872 67.6076 80.3151 69.6458 78.8426C71.6821 77.371 72.8837 75.5545 72.3281 74.7881L54.2946 51.8645C54.8229 51.4823 54.9424 50.7424 54.5583 50.2123C54.4516 50.0646 54.3119 49.9438 54.1504 49.8595C53.9889 49.7753 53.8099 49.7299 53.6277 49.7269C60.7914 42.1836 61.8105 30.3824 55.4925 21.6458V21.6458ZM49.0778 50.3975C40.3321 56.721 28.1167 54.7576 21.7932 46.0109C15.4697 37.267 17.434 25.0507 26.1789 18.7281C34.9246 12.4037 47.14 14.368 53.4626 23.1138C59.787 31.8595 57.8236 44.0749 49.0778 50.3975V50.3975ZM84.7186 13.7622L83.788 12.6665L78.2601 17.3587C77.609 16.7542 76.7537 16.4176 75.8652 16.4162C75.0979 16.4162 74.3927 16.6644 73.8106 17.0786L60.5579 5.08126C60.7701 4.62123 60.8806 4.12083 60.8818 3.6142C60.8893 3.14233 60.8029 2.67366 60.6276 2.23551C60.4522 1.79736 60.1914 1.39848 59.8604 1.06211C59.5294 0.725741 59.1347 0.458602 58.6994 0.276255C58.2641 0.0939083 57.7969 0 57.325 0C56.853 0 56.3858 0.0939083 55.9505 0.276255C55.5153 0.458602 55.1206 0.725741 54.7896 1.06211C54.4586 1.39848 54.1978 1.79736 54.0224 2.23551C53.8471 2.67366 53.7606 3.14233 53.7682 3.6142C53.7682 4.60592 54.176 5.50185 54.8311 6.14688L49.1271 14.6609L50.3223 15.4601L56.0409 6.92237C56.4405 7.07747 56.8711 7.17053 57.3254 7.17053C58.2057 7.16847 59.0533 6.83754 59.7021 6.24267L72.8362 18.1315C72.4949 18.6848 72.3127 19.3215 72.3098 19.9717C72.3355 20.8979 72.7215 21.7776 73.3857 22.4236C74.05 23.0697 74.94 23.4311 75.8666 23.4311C76.7932 23.4311 77.6832 23.0697 78.3475 22.4236C79.0117 21.7776 79.3977 20.8979 79.4234 19.9717C79.4234 19.4544 79.3075 18.9653 79.1077 18.5219L84.7186 13.7622V13.7622ZM57.3245 5.79836C56.7453 5.79836 56.1897 5.56824 55.7801 5.15864C55.3705 4.74903 55.1404 4.19348 55.1404 3.6142C55.1404 3.03493 55.3705 2.47938 55.7801 2.06977C56.1897 1.66016 56.7453 1.43005 57.3245 1.43005C57.9038 1.43005 58.4594 1.66016 58.869 2.06977C59.2786 2.47938 59.5087 3.03493 59.5087 3.6142C59.5087 4.19348 59.2786 4.74903 58.869 5.15864C58.4594 5.56824 57.9038 5.79836 57.3245 5.79836V5.79836ZM75.8652 22.1576C75.286 22.1574 74.7305 21.927 74.3211 21.5173C73.9116 21.1075 73.6817 20.5518 73.682 19.9726C73.6822 19.3933 73.9126 18.8378 74.3224 18.4284C74.7321 18.019 75.2878 17.7891 75.8671 17.7893C76.1539 17.7894 76.4379 17.8461 76.7028 17.9559C76.9678 18.0658 77.2085 18.2268 77.4112 18.4297C77.6139 18.6326 77.7747 18.8734 77.8844 19.1385C77.994 19.4035 78.0504 19.6876 78.0503 19.9744C78.0502 20.2612 77.9936 20.5452 77.8837 20.8102C77.7738 21.0751 77.6128 21.3158 77.4099 21.5186C77.207 21.7213 76.9662 21.8821 76.7011 21.9917C76.4361 22.1014 76.1521 22.1578 75.8652 22.1576V22.1576ZM21.1345 18.7756L12.417 10.8856C12.7662 10.3278 12.9523 9.68341 12.9544 9.02533C12.9544 8.08189 12.5796 7.17709 11.9125 6.50998C11.2454 5.84287 10.3406 5.46809 9.39717 5.46809C8.45373 5.46809 7.54893 5.84287 6.88182 6.50998C6.21471 7.17709 5.83993 8.08189 5.83993 9.02533C5.83993 9.59828 5.98864 10.132 6.22859 10.6119L0 15.898L0.929681 16.9928L7.12086 11.7377C7.7559 12.2795 8.56246 12.5785 9.39717 12.5817C10.1571 12.5817 10.8578 12.339 11.4353 11.9339L20.1701 19.8403L21.1345 18.7756V18.7756ZM7.21392 9.02533C7.2138 8.44618 7.44375 7.89069 7.85319 7.48109C8.26263 7.07148 8.81801 6.84129 9.39717 6.84117C9.97632 6.84105 10.5318 7.071 10.9414 7.48044C11.351 7.88988 11.5812 8.44526 11.5813 9.02442C11.5814 9.60357 11.3515 10.1591 10.9421 10.5687C10.5326 10.9783 9.97723 11.2085 9.39808 11.2086C8.81892 11.2087 8.26344 10.9787 7.85383 10.5693C7.44423 10.1599 7.21404 9.60448 7.21392 9.02533V9.02533ZM47.3353 18.781C46.2496 18.0712 45.2597 17.6607 45.1256 17.866L40.7718 24.5224C39.2158 23.7764 37.4875 23.4632 35.7685 23.6159C34.0496 23.7686 32.4036 24.3814 31.0033 25.3901L25.6734 20.4771C25.5065 20.3229 24.6589 20.9716 23.7794 21.9259C22.8999 22.8793 22.3215 23.778 22.4884 23.9312L27.9607 28.9756C27.3022 30.3014 26.9591 31.7614 26.958 33.2417C26.958 38.5799 31.2853 42.9071 36.6234 42.9071C41.9615 42.9071 46.2888 38.5799 46.2888 33.2417C46.2888 31.105 45.5863 29.1362 44.4121 27.5368L49.0568 20.4379V20.437C49.1919 20.2335 48.42 19.4909 47.3353 18.781V18.781ZM36.6243 39.3225C35.0116 39.3225 33.4649 38.6819 32.3245 37.5415C31.1842 36.4011 30.5435 34.8545 30.5435 33.2417C30.5435 31.629 31.1842 30.0823 32.3245 28.942C33.4649 27.8016 35.0116 27.1609 36.6243 27.1609C38.237 27.1609 39.7837 27.8016 40.9241 28.942C42.0644 30.0823 42.7051 31.629 42.7051 33.2417C42.7051 34.8545 42.0644 36.4011 40.9241 37.5415C39.7837 38.6819 38.237 39.3225 36.6243 39.3225Z" fill="url(#paint1_linear)"/>
<path d="M99.7252 62.7641V62.2327H98.6899C98.4089 62.2327 98.3143 62.1624 98.3143 61.9181V61.4936H99.258L99.3007 60.9653H98.3143V60.2506H99.7252V59.7193H97.7188V61.9609C97.7188 62.5625 97.9661 62.7641 98.6472 62.7641H99.7252ZM102.709 62.7641L101.683 61.2035L102.642 59.7193H101.915L101.338 60.7026L100.767 59.7193H100.037L100.996 61.2035L99.9726 62.7641H100.709L101.338 61.7043L101.973 62.7641H102.709ZM105.228 60.7546C105.228 60.0674 104.85 59.7193 104.224 59.7193H103.042V62.7641H103.637V61.7899H104.224C104.85 61.7899 105.228 61.4417 105.228 60.7546ZM104.633 60.7546C104.633 61.1302 104.462 61.2554 104.193 61.2554H103.637V60.2506H104.193C104.462 60.2506 104.633 60.3789 104.633 60.7546ZM107.604 62.7641V62.2327H106.697C106.416 62.2327 106.322 62.1624 106.322 61.9181V59.7193H105.726V61.9181C105.726 62.5198 106.019 62.7641 106.697 62.7641H107.604ZM110.31 61.0997C110.31 60.1682 109.938 59.6948 109.101 59.6948C108.246 59.6948 107.892 60.1682 107.892 61.0966V61.3195C107.892 62.3579 108.246 62.7885 109.101 62.7885C109.944 62.7885 110.31 62.3579 110.31 61.3318V61.0997ZM109.718 61.3195C109.718 61.7929 109.66 62.2602 109.101 62.2602C108.524 62.2602 108.49 61.7837 108.484 61.3195V61.1607C108.484 60.6507 108.545 60.2232 109.101 60.2232C109.648 60.2232 109.718 60.6507 109.718 61.1607V61.3195ZM113.138 62.7641L112.457 61.5364C112.753 61.4295 113.013 61.121 113.013 60.6935C113.013 60.1438 112.647 59.7193 112.027 59.7193H111.52C111.013 59.7193 110.833 59.93 110.833 60.3728V62.7641H111.428V61.6341H111.856L112.448 62.7641H113.138ZM112.418 60.6935C112.418 60.9286 112.247 61.1394 111.987 61.1394H111.428V60.5194C111.428 60.3667 111.504 60.2506 111.691 60.2506H111.987C112.247 60.2506 112.418 60.4156 112.418 60.6935ZM115.939 62.7641L114.962 59.9758C114.885 59.759 114.787 59.7193 114.65 59.7193C114.506 59.7193 114.403 59.7712 114.314 59.9758L113.337 62.7641H113.957L114.125 62.2388H115.148L115.319 62.7641H115.939ZM115.01 61.7379H114.274L114.65 60.5316L115.01 61.7379ZM118.336 60.2506V59.7193H116.113V60.2506H116.925V62.7641H117.521V60.2506H118.336ZM121.03 61.0997C121.03 60.1682 120.657 59.6948 119.82 59.6948C118.965 59.6948 118.611 60.1682 118.611 61.0966V61.3195C118.611 62.3579 118.965 62.7885 119.82 62.7885C120.663 62.7885 121.03 62.3579 121.03 61.3318V61.0997ZM120.434 61.3195C120.434 61.7929 120.379 62.2602 119.82 62.2602C119.243 62.2602 119.21 61.7837 119.203 61.3195V61.1607C119.203 60.6507 119.265 60.2232 119.82 60.2232C120.367 60.2232 120.434 60.6507 120.434 61.1607V61.3195ZM123.855 62.7641L123.177 61.5364C123.47 61.4295 123.733 61.121 123.733 60.6935C123.733 60.1438 123.363 59.7193 122.743 59.7193H122.239C121.732 59.7193 121.552 59.93 121.552 60.3728V62.7641H122.144V61.6341H122.572L123.168 62.7641H123.855ZM123.137 60.6935C123.137 60.9286 122.966 61.1394 122.706 61.1394H122.144V60.5194C122.144 60.3667 122.224 60.2506 122.41 60.2506H122.706C122.966 60.2506 123.137 60.4156 123.137 60.6935ZM126.426 59.7193H125.779L125.22 60.947L124.652 59.7193H124.004L124.921 61.515V62.7641H125.51V61.515L126.426 59.7193ZM129.663 62.7641V62.2327H128.756C128.472 62.2327 128.381 62.1624 128.381 61.9181V59.7193H127.785V61.9181C127.785 62.5198 128.075 62.7641 128.756 62.7641H129.663ZM132.143 62.7641V62.2327H131.108C130.824 62.2327 130.732 62.1624 130.732 61.9181V61.4936H131.676L131.719 60.9653H130.732V60.2506H132.143V59.7193H130.137V61.9609C130.137 62.5625 130.384 62.7641 131.065 62.7641H132.143ZM135.032 62.7641L134.058 59.9758C133.982 59.759 133.881 59.7193 133.747 59.7193C133.6 59.7193 133.496 59.7712 133.408 59.9758L132.433 62.7641H133.053L133.218 62.2388H134.241L134.412 62.7641H135.032ZM134.104 61.7379H133.368L133.747 60.5316L134.104 61.7379ZM137.756 62.7641L137.075 61.5364C137.372 61.4295 137.631 61.121 137.631 60.6935C137.631 60.1438 137.265 59.7193 136.645 59.7193H136.141C135.631 59.7193 135.451 59.93 135.451 60.3728V62.7641H136.046V61.6341H136.474L137.066 62.7641H137.756ZM137.039 60.6935C137.039 60.9286 136.868 61.1394 136.605 61.1394H136.046V60.5194C136.046 60.3667 136.123 60.2506 136.312 60.2506H136.605C136.868 60.2506 137.039 60.4156 137.039 60.6935ZM140.621 59.7193H140.026V61.7135L138.776 59.7193H138.205V62.7641H138.798V60.8095L139.851 62.4556C140.022 62.7641 140.203 62.7977 140.334 62.7977C140.487 62.7977 140.621 62.645 140.621 62.4556V59.7193ZM141.83 62.7641V59.7193H141.235V62.7641H141.83ZM144.912 59.7193H144.319V61.7135L143.07 59.7193H142.496V62.7641H143.092V60.8095L144.142 62.4556C144.313 62.7641 144.494 62.7977 144.628 62.7977C144.781 62.7977 144.912 62.645 144.912 62.4556V59.7193ZM145.339 61.3318C145.339 62.2907 145.688 62.7885 146.564 62.7885C147.025 62.7885 147.45 62.5931 147.633 62.1624V61.2432H146.757V61.7379H147.123V61.9426C147.007 62.1777 146.821 62.2602 146.598 62.2602C145.966 62.2602 145.975 61.7563 145.969 61.2432C145.969 60.7301 145.975 60.2232 146.537 60.2232C146.873 60.2232 147.08 60.3728 147.08 60.7332H147.636C147.636 60.495 147.584 60.2109 147.401 60.0277C147.187 59.8139 146.885 59.6948 146.537 59.6948C145.773 59.6948 145.339 60.1651 145.339 60.9561V61.3318ZM151.554 62.7641L150.577 59.9758C150.501 59.759 150.403 59.7193 150.266 59.7193C150.122 59.7193 150.018 59.7712 149.93 59.9758L148.952 62.7641H149.572L149.74 62.2388H150.763L150.934 62.7641H151.554ZM150.626 61.7379H149.89L150.266 60.5316L150.626 61.7379ZM154.346 59.7193H153.75V61.7135L152.501 59.7193H151.93V62.7641H152.522V60.8095L153.576 62.4556C153.747 62.7641 153.927 62.7977 154.059 62.7977C154.211 62.7977 154.346 62.645 154.346 62.4556V59.7193ZM157.268 62.7641L156.294 59.9758C156.218 59.759 156.12 59.7193 155.983 59.7193C155.836 59.7193 155.735 59.7712 155.644 59.9758L154.669 62.7641H155.289L155.457 62.2388H156.477L156.648 62.7641H157.268ZM156.343 61.7379H155.607L155.983 60.5316L156.343 61.7379ZM159.565 62.7641V62.2327H158.658C158.377 62.2327 158.282 62.1624 158.282 61.9181V59.7193H157.69V61.9181C157.69 62.5198 157.98 62.7641 158.658 62.7641H159.565ZM162.118 59.7193H161.474L160.912 60.947L160.344 59.7193H159.699L160.612 61.515V62.7641H161.202V61.515L162.118 59.7193ZM164.467 60.2506V59.7193H162.243V60.2506H163.056V62.7641H163.648V60.2506H164.467ZM165.52 62.7641V59.7193H164.928V62.7641H165.52ZM167.771 61.5852C167.731 61.9914 167.643 62.2602 167.209 62.2602C166.672 62.2602 166.638 61.8204 166.638 61.4081V61.1424C166.638 60.6813 166.653 60.2232 167.209 60.2232C167.572 60.2232 167.698 60.4217 167.753 60.7332H168.308C168.308 60.0308 167.829 59.6948 167.209 59.6948C166.287 59.6948 166.042 60.3362 166.042 61.1607V61.4173C166.042 62.1472 166.287 62.7885 167.209 62.7885C167.911 62.7885 168.321 62.3671 168.321 61.5852H167.771ZM170.88 61.8662C170.88 61.3134 170.562 61.0538 170.061 60.9867L169.576 60.9347C169.383 60.9073 169.203 60.7973 169.203 60.5957C169.203 60.3881 169.399 60.2109 169.759 60.2109C169.961 60.2109 170.199 60.2842 170.26 60.5835L170.788 60.5591C170.788 60.0399 170.345 59.6948 169.774 59.6948C169.075 59.6948 168.629 60.0735 168.629 60.6171C168.629 61.1424 168.968 61.3989 169.438 61.4692L169.933 61.5211C170.156 61.5547 170.297 61.6707 170.297 61.8845C170.297 62.1258 170.113 62.2602 169.762 62.2602C169.481 62.2602 169.13 62.1044 169.13 61.7715L168.592 61.799C168.592 62.5381 169.292 62.7885 169.753 62.7885C170.391 62.7885 170.88 62.4556 170.88 61.8662ZM174.325 60.2506V59.7193H172.101V60.2506H172.914V62.7641H173.509V60.2506H174.325ZM177.018 61.0997C177.018 60.1682 176.646 59.6948 175.809 59.6948C174.954 59.6948 174.6 60.1682 174.6 61.0966V61.3195C174.6 62.3579 174.954 62.7885 175.809 62.7885C176.652 62.7885 177.018 62.3579 177.018 61.3318V61.0997ZM176.423 61.3195C176.423 61.7929 176.368 62.2602 175.809 62.2602C175.232 62.2602 175.198 61.7837 175.192 61.3195V61.1607C175.192 60.6507 175.253 60.2232 175.809 60.2232C176.356 60.2232 176.423 60.6507 176.423 61.1607V61.3195ZM179.773 61.0997C179.773 60.1682 179.4 59.6948 178.561 59.6948C177.706 59.6948 177.351 60.1682 177.351 61.0966V61.3195C177.351 62.3579 177.706 62.7885 178.561 62.7885C179.404 62.7885 179.773 62.3579 179.773 61.3318V61.0997ZM179.178 61.3195C179.178 61.7929 179.123 62.2602 178.561 62.2602C177.983 62.2602 177.95 61.7837 177.947 61.3195V61.1607C177.947 60.6507 178.005 60.2232 178.561 60.2232C179.11 60.2232 179.178 60.6507 179.178 61.1607V61.3195ZM182.17 62.7641V62.2327H181.263C180.982 62.2327 180.888 62.1624 180.888 61.9181V59.7193H180.292V61.9181C180.292 62.5198 180.585 62.7641 181.263 62.7641H182.17ZM184.018 61.1516L184.989 59.7193H184.391L183.239 61.4203V59.7193H182.644V62.7641H183.239V62.1685L183.655 61.6127L184.372 62.7641H185.066L184.018 61.1516ZM186.083 62.7641V59.7193H185.487V62.7641H186.083ZM188.773 60.2506V59.7193H186.55V60.2506H187.362V62.7641H187.955V60.2506H188.773ZM192.23 60.2506V59.7193H190.88C190.398 59.7193 190.227 59.8903 190.227 60.3392V62.7641H190.819V61.5272H191.894L191.937 60.9989H190.819V60.5744C190.819 60.3362 190.905 60.2506 191.158 60.2506H192.23ZM194.979 61.0997C194.979 60.1682 194.609 59.6948 193.769 59.6948C192.914 59.6948 192.56 60.1682 192.56 61.0966V61.3195C192.56 62.3579 192.914 62.7885 193.769 62.7885C194.612 62.7885 194.979 62.3579 194.979 61.3318V61.0997ZM194.386 61.3195C194.386 61.7929 194.331 62.2602 193.769 62.2602C193.192 62.2602 193.159 61.7837 193.156 61.3195V61.1607C193.156 60.6507 193.214 60.2232 193.769 60.2232C194.316 60.2232 194.386 60.6507 194.386 61.1607V61.3195ZM197.807 62.7641L197.126 61.5364C197.422 61.4295 197.682 61.121 197.682 60.6935C197.682 60.1438 197.315 59.7193 196.695 59.7193H196.191C195.681 59.7193 195.501 59.93 195.501 60.3728V62.7641H196.097V61.6341H196.524L197.117 62.7641H197.807ZM197.089 60.6935C197.089 60.9286 196.918 61.1394 196.655 61.1394H196.097V60.5194C196.097 60.3667 196.173 60.2506 196.362 60.2506H196.655C196.918 60.2506 197.089 60.4156 197.089 60.6935ZM201.343 61.8662C201.343 61.3134 201.026 61.0538 200.525 60.9867L200.039 60.9347C199.847 60.9073 199.667 60.7973 199.667 60.5957C199.667 60.3881 199.862 60.2109 200.223 60.2109C200.424 60.2109 200.662 60.2842 200.723 60.5835L201.252 60.5591C201.252 60.0399 200.809 59.6948 200.238 59.6948C199.538 59.6948 199.093 60.0735 199.093 60.6171C199.093 61.1424 199.432 61.3989 199.902 61.4692L200.397 61.5211C200.62 61.5547 200.76 61.6707 200.76 61.8845C200.76 62.1258 200.577 62.2602 200.226 62.2602C199.945 62.2602 199.593 62.1044 199.593 61.7715L199.056 61.799C199.056 62.5381 199.755 62.7885 200.216 62.7885C200.855 62.7885 201.343 62.4556 201.343 61.8662ZM203.796 60.2506V59.7193H201.572V60.2506H202.385V62.7641H202.98V60.2506H203.796ZM206.495 59.7193H205.903V61.6982C205.903 62.0922 205.653 62.2602 205.332 62.2602C205.011 62.2602 204.764 62.0922 204.764 61.6982V59.7193H204.168V61.7196C204.168 62.4098 204.706 62.7885 205.332 62.7885C205.955 62.7885 206.495 62.4098 206.495 61.7196V59.7193ZM209.409 61.2279C209.397 60.7729 209.446 60.3514 209.104 60.0094C208.902 59.8109 208.615 59.7193 208.297 59.7193H207.115V61.9639C207.115 62.5625 207.375 62.7641 208.254 62.7641C208.572 62.7641 208.902 62.6755 209.104 62.4739C209.363 62.2113 209.397 61.8967 209.415 61.5578L209.409 61.2279ZM208.816 61.2279C208.816 61.6921 208.798 61.909 208.688 62.0464C208.584 62.1685 208.447 62.2327 208.242 62.2327C207.836 62.2327 207.708 62.1624 207.708 61.9334V60.2506H208.242C208.447 60.2506 208.584 60.3148 208.688 60.4369C208.798 60.5744 208.816 60.7668 208.816 61.2279ZM211.938 62.7641V62.2327H210.902C210.621 62.2327 210.527 62.1624 210.527 61.9181V61.4936H211.47L211.513 60.9653H210.527V60.2506H211.938V59.7193H209.931V61.9609C209.931 62.5625 210.179 62.7641 210.86 62.7641H211.938ZM214.891 59.7193H214.298V61.7135L213.049 59.7193H212.475V62.7641H213.071V60.8095L214.121 62.4556C214.292 62.7641 214.472 62.7977 214.604 62.7977C214.759 62.7977 214.891 62.645 214.891 62.4556V59.7193ZM217.487 60.2506V59.7193H215.263V60.2506H216.076V62.7641H216.671V60.2506H217.487ZM220 61.8662C220 61.3134 219.686 61.0538 219.185 60.9867L218.696 60.9347C218.504 60.9073 218.323 60.7973 218.323 60.5957C218.323 60.3881 218.522 60.2109 218.879 60.2109C219.081 60.2109 219.322 60.2842 219.38 60.5835L219.912 60.5591C219.912 60.0399 219.466 59.6948 218.898 59.6948C218.195 59.6948 217.752 60.0735 217.752 60.6171C217.752 61.1424 218.088 61.3989 218.559 61.4692L219.056 61.5211C219.279 61.5547 219.42 61.6707 219.42 61.8845C219.42 62.1258 219.237 62.2602 218.885 62.2602C218.601 62.2602 218.253 62.1044 218.253 61.7715L217.713 61.799C217.713 62.5381 218.415 62.7885 218.876 62.7885C219.515 62.7885 220 62.4556 220 61.8662Z" fill="black"/>
<defs>
<linearGradient id="paint0_linear" x1="90.5449" y1="11.1522" x2="201.369" y2="62.8306" gradientUnits="userSpaceOnUse">
<stop stop-color="#006DD2"/>
<stop offset="1" stop-color="#626262"/>
</linearGradient>
<linearGradient id="paint1_linear" x1="-2.28709" y1="1.04229" x2="74.4941" y2="36.8459" gradientUnits="userSpaceOnUse">
<stop stop-color="#00B0F0"/>
<stop offset="1" stop-color="#2E75B6"/>
</linearGradient>
</defs>
</svg>
