<?xml version="1.0" encoding="utf-8"?>
<!-- Generator: Adobe Illustrator 16.0.0, SVG Export Plug-In . SVG Version: 6.00 Build 0)  -->
<!DOCTYPE svg PUBLIC "-//W3C//DTD SVG 1.1//EN" "http://www.w3.org/Graphics/SVG/1.1/DTD/svg11.dtd">
<svg version="1.1" id="Ebene_1" xmlns="http://www.w3.org/2000/svg" xmlns:xlink="http://www.w3.org/1999/xlink" x="0px" y="0px"
	 width="841.89px" height="331.653px" viewBox="0 0 841.89 331.653" enable-background="new 0 0 841.89 331.653"
	 xml:space="preserve">
<g>
	<path fill="#003B7A" d="M44.685,311.584c-8.52,0-13.358-5.199-13.358-14.948c0-16.896,7.437-36.968,24.044-36.968
		c8.376,0,13.215,5.271,13.215,15.018C68.586,291.51,61.22,311.584,44.685,311.584z M58.837,274.902
		c0-5.199-1.083-7.654-4.549-7.654c-8.592,0-13.213,17.402-13.213,29.171c0,5.128,1.083,7.583,4.622,7.583
		C54.288,304.002,58.837,286.673,58.837,274.902z"/>
	<path fill="#003B7A" d="M76.817,322.919c-0.145,0.721-0.216,1.011-1.3,1.229l-6.354,1.298c-0.289,0.073-0.866,0.219-1.083,0.219
		c-0.361,0-0.361-0.29-0.361-0.65c0-0.434,0.216-1.084,0.289-1.516l8.232-38.704c0.361-1.588,0.289-2.887,0.289-3.754
		c-0.072-1.731-0.577-3.467-0.577-4.333c0-0.505,0.505-0.648,0.866-0.795l5.777-2.236c0.216-0.072,0.505-0.219,0.867-0.219
		c0.794,0,1.372,2.891,1.372,6.5c1.805-2.094,5.126-6.5,11.553-6.5c5.126,0,7.871,3.611,7.871,10.833
		c0,11.552-5.85,27.294-18.341,27.294c-3.537,0-5.126-1.157-6.281-1.807L76.817,322.919z M80.933,303.423
		c0.578,0.29,2.166,1.446,4.622,1.446c7.365,0,10.037-11.699,10.037-19.209c0-3.104-1.228-4.98-3.466-4.98
		c-4.405,0-7.509,5.631-8.665,10.83L80.933,303.423z"/>
	<path fill="#003B7A" d="M135.161,306.456c0.072,0.217,0.217,0.434,0.217,0.65c0,0.938-6.715,4.478-14.08,4.478
		c-8.665,0-12.563-5.415-12.563-13.432c0-14.439,9.314-24.695,20.434-24.695c6.787,0,10.686,3.756,10.686,9.532
		c0,13.646-18.34,13.646-22.456,13.646c0,2.166-0.578,7.728,6.209,7.728c4.261,0,8.087-2.89,9.17-2.89
		c0.361,0,0.434,0.218,0.578,0.507L135.161,306.456z M118.409,290.139c3.105,0,12.781,0,12.781-6.645
		c0-1.876-1.156-3.537-3.322-3.537C121.081,279.957,119.059,287.466,118.409,290.139z"/>
	<path fill="#003B7A" d="M168.882,309.489c-0.145,0.796-0.29,0.867-1.012,0.867h-6.715c-0.578,0-0.939-0.146-0.939-0.722
		c0-0.219,0.073-0.506,0.073-0.795l4.766-20.579c0.361-1.444,0.65-2.888,0.65-4.404c0-1.662-0.65-2.816-2.166-2.816
		c-6.643,0-9.026,8.954-10.181,14.151l-3.105,14.298c-0.145,0.796-0.289,0.867-1.01,0.867h-6.715c-0.578,0-0.938-0.146-0.938-0.722
		c0-0.219,0.072-0.506,0.072-0.795l4.91-21.733c0.433-1.806,0.867-3.612,0.867-5.921c0-2.167-0.649-3.179-0.649-4.479
		c0-0.505,0.504-0.648,0.865-0.795l5.777-2.236c0.217-0.072,0.361-0.219,0.722-0.219c0.794,0,1.444,3.25,1.444,7.295
		c1.95-2.311,6.065-7.295,11.987-7.295c4.693,0,7.292,3.611,7.292,7.583c0,1.878-0.289,3.829-0.722,5.633L168.882,309.489z"/>
	<path fill="#003B7A" d="M197.621,295.121c-0.289,1.01-0.434,1.081-1.3,1.081h-14.946c-0.723,0-1.228-0.288-1.228-0.795
		c0-0.431,0.145-1.155,0.216-1.587l1.083-4.838c0.289-1.01,0.433-1.082,1.3-1.082h14.946c0.795,0,1.228,0.215,1.228,0.794
		c0,0.433-0.144,1.155-0.216,1.587L197.621,295.121z"/>
	<path fill="#003B7A" d="M239.573,309.489c-0.145,0.65-0.361,0.867-1.011,0.867h-3.899c-0.433,0-0.722-0.146-0.722-0.434
		c0-0.146,0.145-0.507,0.145-0.722l6.716-36.97c0.144-0.65,0.649-2.96,0.794-3.684l-0.145-0.145c-0.36,1.157-1.228,3.106-1.66,3.828
		l-14.008,25.921c-0.289,0.579-0.361,0.649-1.083,0.649h-2.094c-0.723,0-0.938-0.07-1.011-0.938l-2.672-25.633
		c-0.215-1.806-0.288-3.396-0.288-4.117h-0.145c-0.072,1.229-0.433,3.25-0.65,4.117l-8.954,37.258
		c-0.144,0.65-0.361,0.867-1.011,0.867h-3.899c-0.433,0-0.722-0.146-0.722-0.579c0-0.143,0.072-0.361,0.145-0.576l12.78-47.512
		c0.145-0.649,0.433-0.796,1.083-0.796h3.827c0.578,0,0.938,0,1.011,0.868l2.96,24.982c0.144,1.156,0.144,2.238,0.144,3.826h0.145
		c0.289-0.939,1.083-2.814,1.661-3.826l13.575-25.2c0.289-0.575,0.361-0.65,1.155-0.65h4.549c0.649,0,0.722,0.218,0.722,0.507
		c0,0.144-0.073,0.434-0.073,0.578L239.573,309.489z"/>
	<path fill="#003B7A" d="M257.842,308.911c-0.144,0.649-0.217,1.445-0.938,1.445h-3.827c-0.433,0-0.722-0.146-0.722-0.36
		c0-0.29,0.072-0.651,0.145-0.867l6.209-29.244h-5.704c-0.505,0-0.578-0.216-0.578-0.506c0-0.145,0-0.288,0.073-0.577l0.505-2.312
		c0.145-0.504,0.361-0.793,0.867-0.793h9.603c1.012,0,1.156,0.071,1.156,0.578c0,0.432-0.216,1.01-0.361,1.803L257.842,308.911z
		 M264.702,266.67c-2.238,0-4.043-1.805-4.043-4.042c0-2.165,1.805-4.043,4.043-4.043c2.167,0,4.043,1.878,4.043,4.043
		C268.745,264.865,266.868,266.67,264.702,266.67z"/>
	<path fill="#003B7A" d="M274.738,285.156c0.289-1.517,0.505-3.105,0.505-4.116c0-1.444-0.289-2.888-0.578-4.333
		c0-0.288,0.362-0.505,0.65-0.576l2.6-1.083c0.433-0.146,0.721-0.362,1.01-0.362c0.577,0,1.371,2.167,1.371,4.405
		c0,1.444-0.216,2.599-0.216,3.249h0.145c2.671-3.755,6.642-7.654,13.068-7.654c3.755,0,6.571,1.95,6.571,5.777
		c0,1.731-0.361,3.394-0.723,5.056l-5.126,24.116c-0.145,0.505-0.289,0.722-0.867,0.722h-3.754c-0.362,0-0.578-0.146-0.578-0.434
		c0-0.146,0-0.362,0.072-0.507l5.054-23.897c0.216-0.94,0.433-1.95,0.433-2.891c0-2.021-1.083-3.104-3.249-3.104
		c-7.799,0-12.059,9.604-13.069,14.369l-3.322,15.742c-0.145,0.505-0.289,0.722-0.866,0.722h-3.755
		c-0.361,0-0.578-0.146-0.578-0.434c0-0.146,0-0.362,0.072-0.507L274.738,285.156z"/>
	<path fill="#003B7A" d="M334.02,260.244c0.073-0.431,0.217-1.01,0.723-1.154l3.61-0.866c0.145,0,0.361-0.146,0.65-0.146
		c0.505,0,0.578,0.219,0.505,0.578l-8.664,40.652c-0.289,1.516-0.434,3.465-0.434,5.198c0,2.021,0.723,3.828,0.723,4.333
		c0,0.289-0.433,0.505-0.723,0.576l-2.599,1.084c-0.433,0.145-0.722,0.361-1.011,0.361c-0.577,0-1.372-2.166-1.372-4.405
		c-0.072-1.228-0.072-1.806-0.072-2.454h-0.145c-2.094,3.033-5.56,7.365-11.264,7.365c-5.199,0-8.159-3.537-8.159-10.688
		c0-12.346,5.343-25.994,17.04-25.994c3.828,0,5.994,1.445,7.582,2.383L334.02,260.244z M329.398,281.689
		c-1.805-1.082-3.176-2.166-6.354-2.166c-9.025,0-11.77,13.213-11.77,20.867c0,3.683,0.939,6.138,3.972,6.138
		c5.993,0,10.181-6.065,11.697-13.286L329.398,281.689z"/>
	<path fill="#003B7A" d="M365.431,305.878c0.071,0.146,0.144,0.217,0.144,0.362c0,0.866-6.355,5.127-13.358,5.127
		c-8.16,0-11.697-5.198-11.697-13.215c0-12.274,7.509-23.467,18.267-23.467c6.426,0,9.532,3.899,9.532,9.244
		c0,12.563-15.885,12.563-22.24,12.635c0,0.648-0.072,1.227-0.072,1.805c0,5.127,2.022,7.944,6.716,7.944
		c6.426,0,9.314-3.469,10.325-3.469c0.289,0,0.505,0.219,0.65,0.435L365.431,305.878z M363.265,284.145
		c0-3.031-1.734-4.982-5.272-4.982c-8.231,0-10.542,9.389-11.336,12.924C350.628,292.086,363.265,292.086,363.265,284.145z"/>
	<path fill="#003B7A" d="M400.811,260.244c0.072-0.431,0.216-1.01,0.722-1.154l3.611-0.866c0.144,0,0.361-0.146,0.649-0.146
		c0.506,0,0.577,0.219,0.506,0.578l-8.665,40.652c-0.289,1.516-0.433,3.465-0.433,5.198c0,2.021,0.722,3.828,0.722,4.333
		c0,0.289-0.433,0.505-0.722,0.576l-2.599,1.084c-0.434,0.145-0.723,0.361-1.011,0.361c-0.578,0-1.373-2.166-1.373-4.405
		c-0.073-1.228-0.073-1.806-0.073-2.454h-0.144c-2.094,3.033-5.559,7.365-11.264,7.365c-5.198,0-8.159-3.537-8.159-10.688
		c0-12.346,5.343-25.994,17.04-25.994c3.827,0,5.993,1.445,7.582,2.383L400.811,260.244z M396.19,281.689
		c-1.806-1.082-3.177-2.166-6.354-2.166c-9.025,0-11.77,13.213-11.77,20.867c0,3.683,0.939,6.138,3.972,6.138
		c5.993,0,10.181-6.065,11.697-13.286L396.19,281.689z"/>
</g>
<g>
	<rect fill="#003B7A" width="841.89" height="209.473"/>
	<path fill="#FFFFFF" d="M449.654,114.308v-7.174h14.304v22.746h-4.131l-1.329-3.398c-2.467,2.766-5.22,3.963-9.066,3.963
		c-4.242,0-7.87-1.422-10.224-3.906c-3.438-3.549-3.723-7.971-3.723-14.463v-7.412c0-6.426,0.284-10.916,3.723-14.471
		c2.415-2.525,6.033-3.904,10.504-3.904c8.511,0,13.845,4.822,14.246,12.918h-9.417c-0.227-3.15-1.901-4.814-4.829-4.814
		c-4.591,0-4.816,2.918-4.816,8.66v10.572c0,5.684,0.226,8.668,4.816,8.668c3.396,0,4.829-2.004,4.829-6.367v-1.617H449.654z
		 M388.617,94.501h-2.58v11.023h2.58c5.631,0,8.152-0.801,8.152-5.508C396.77,95.3,394.248,94.501,388.617,94.501 M398.387,111.158
		l9.18,18.205h-10.268l-8.158-17.111h-3.104v17.111h-9.298V87.378h10.557c5.63,0,9.882,0.174,12.923,1.787
		c3.789,2.004,5.857,5.742,5.857,10.613C406.076,105.412,403.375,109.433,398.387,111.158 M329.708,130.396
		c-10.173,0-15.051-4.828-15.051-14.652V87.378h9.301v26.246c0,6.084,0.925,8.668,5.75,8.668c4.874,0,5.741-2.637,5.741-8.668
		V87.378h9.298v28.365C344.747,125.625,339.922,130.396,329.708,130.396 M268.665,110.802h-4.022v11.715h4.022
		c4.188,0,6.203-1.836,6.203-5.846C274.868,112.65,272.852,110.802,268.665,110.802 M268.319,93.869h-3.676v10.398h3.676
		c3.79,0,5.624-1.73,5.624-5.223C273.942,95.423,272.161,93.869,268.319,93.869 M277.508,107.255
		c4.477,1.432,6.713,4.758,6.713,10.049c0,8.211-4.82,12.059-14.7,12.059h-14.182V87.378h13.897c9.473,0,14.125,3.398,14.125,10.686
		C283.361,102.603,281.587,105.412,277.508,107.255 M210.431,93.748c-2.873,0-4.647,1.611-4.647,3.852
		c0,2.129,1.666,3.682,5.049,5.17c4.251,1.838,7.987,3.043,10.509,5.053c2.811,2.242,4.422,5.633,4.422,9.707
		c0,7.645-5.736,12.916-14.471,12.916c-6.605,0-11.652-2.873-15.165-8.492l7.241-5.117c2.414,3.969,4.772,5.799,8.158,5.799
		c3.216,0,5.282-1.889,5.282-4.412c0-2.297-1.494-4.023-4.647-5.346c-4.137-1.719-7.757-2.934-10.396-4.988
		c-2.931-2.309-4.424-5.516-4.424-9.416c0-7.412,5.221-12.184,13.61-12.184c6.083,0,10.74,2.52,13.724,7.408l-6.663,4.775
		C215.771,95.3,213.302,93.748,210.431,93.748 M156.971,129.363l-0.06-41.984h9.307l0.053,41.984H156.971z M108.739,130.396
		c-10.17,0-15.049-4.828-15.049-14.652V87.378h9.307v26.246c0,6.084,0.918,8.668,5.742,8.668c4.876,0,5.74-2.637,5.74-8.668V87.378
		h9.301v28.365C123.78,125.625,118.955,130.396,108.739,130.396 M53.263,103.917c0-6.09-2.347-8.439-8.439-8.439h-2.183v25.789
		h2.183c6.026,0,8.439-2.416,8.439-8.506V103.917z M57.283,127.171c-2.759,1.852-6.607,2.191-11.827,2.191H33.338V87.378h12.117
		c5.22,0,9.019,0.238,11.827,2.127c3.386,2.295,5.401,6.66,5.401,12.4v12.865C62.684,120.513,60.668,124.935,57.283,127.171"/>
	<path fill="#FFFFFF" d="M307.002,171.277l-14.753-28.364l0.17,28.364h-8.091v-41.979h8.953l13.44,25.506l-0.172-25.506h8.095
		v41.979H307.002z M256.415,163.183v8.094h-29.513v-41.979h28.303v8.104h-19.007v7.527h12.986v8.09h-12.986v10.164H256.415z
		 M184.231,135.675c-2.872,0-4.655,1.609-4.655,3.852c0,2.123,1.674,3.668,5.058,5.17c4.249,1.832,7.985,3.035,10.514,5.053
		c2.811,2.23,4.415,5.627,4.415,9.695c0,7.645-5.742,12.92-14.464,12.92c-6.61,0-11.657-2.861-15.164-8.495l7.235-5.111
		c2.407,3.959,4.768,5.803,8.151,5.803c3.222,0,5.288-1.893,5.288-4.42c0-2.295-1.494-4.021-4.653-5.338
		c-4.138-1.727-7.751-2.928-10.396-5.002c-2.925-2.295-4.416-5.512-4.416-9.416c0-7.412,5.22-12.17,13.604-12.17
		c6.09,0,10.736,2.52,13.721,7.406l-6.657,4.764C189.569,137.226,187.102,135.675,184.231,135.675 M130.194,135.675
		c-2.871,0-4.647,1.609-4.647,3.852c0,2.123,1.662,3.668,5.052,5.17c4.25,1.832,7.984,3.035,10.509,5.053
		c2.809,2.23,4.421,5.627,4.421,9.695c0,7.645-5.744,12.92-14.474,12.92c-6.599,0-11.654-2.861-15.16-8.495l7.239-5.111
		c2.413,3.959,4.768,5.803,8.158,5.803c3.209,0,5.28-1.893,5.28-4.42c0-2.295-1.497-4.021-4.65-5.338
		c-4.14-1.727-7.76-2.928-10.392-5.002c-2.928-2.295-4.429-5.512-4.429-9.416c0-7.412,5.229-12.17,13.608-12.17
		c6.092,0,10.74,2.52,13.732,7.406l-6.663,4.764C135.536,137.226,133.066,135.675,130.194,135.675 M91.149,163.183v8.094H61.63
		v-41.979h28.315v8.104H70.933v7.527h12.98v8.09h-12.98v10.164H91.149z"/>
	<path fill="#FFFFFF" d="M306.057,36.111v25.066h-6.877V36.111h-7.86v-5.987h22.597v5.987H306.057z M279.472,49.661l-3.314-14.02
		l-3.353,14.02H279.472z M280.191,30.124l8.923,31.053h-6.666l-1.664-6.204h-9.34l-1.617,6.204h-6.671l8.925-31.053H280.191z
		 M269.788,22.527h5.183v5.599h-5.183V22.527z M277.306,22.527h5.222v5.599h-5.222V22.527z M253.145,36.111v25.066h-6.886V36.111
		H238.4v-5.987h22.591v5.987H253.145z M225.705,61.177l-0.043-31.053h6.876l0.047,31.053H225.705z M206.844,34.836
		c-2.123,0-3.439,1.192-3.439,2.849c0,1.566,1.234,2.719,3.744,3.816c3.133,1.354,5.897,2.256,7.767,3.738
		c2.081,1.656,3.27,4.164,3.27,7.18c0,5.653-4.244,9.559-10.702,9.559c-4.883,0-8.625-2.126-11.22-6.291l5.354-3.777
		c1.788,2.933,3.532,4.286,6.033,4.286c2.38,0,3.915-1.398,3.915-3.262c0-1.703-1.103-2.984-3.445-3.951
		c-3.058-1.276-5.737-2.166-7.683-3.698c-2.166-1.703-3.274-4.082-3.274-6.968c0-5.479,3.868-9.004,10.063-9.004
		c4.503,0,7.943,1.869,10.153,5.478l-4.925,3.526C210.791,35.978,208.97,34.836,206.844,34.836 M178.518,35.391h-1.915v8.151h1.915
		c4.167,0,6.033-0.592,6.033-4.07C184.55,35.978,182.685,35.391,178.518,35.391 M185.74,47.707l6.795,13.47h-7.602L178.9,48.513
		h-2.298v12.665h-6.878V30.124h7.814c4.166,0,7.307,0.129,9.561,1.316c2.797,1.488,4.328,4.246,4.328,7.854
		C191.427,43.46,189.429,46.423,185.74,47.707 M162.842,55.184v5.994h-21.824V30.124h20.933v5.987h-14.049v5.563h9.593v5.989h-9.593
		v7.521H162.842z M126.107,61.177h-7.262l-9.509-31.053h6.878l6.282,21.703l6.242-21.703h6.886L126.107,61.177z M96.249,61.177
		l-0.04-31.053h6.883l0.039,31.053H96.249z M81.216,61.177L70.303,40.191l0.125,20.986h-5.985V30.124h6.621l9.944,18.859
		l-0.132-18.859h5.994v31.053H81.216z M44.564,61.933c-7.519,0-11.122-3.567-11.122-10.835V30.124h6.877v19.414
		c0,4.499,0.672,6.407,4.245,6.407c3.616,0,4.249-1.955,4.249-6.407V30.124h6.876v20.974C55.689,58.405,52.127,61.933,44.564,61.933
		"/>
</g>
</svg>
