<svg width="3626" height="1254" viewBox="0 0 3626 1254" fill="none" xmlns="http://www.w3.org/2000/svg">
<path d="M59.4724 1253.01V1237.3H28.7857C20.4578 1237.3 17.6516 1235.23 17.6516 1228.01V1215.46H45.6226L46.8899 1199.85H17.6516V1178.73H59.4724V1163.03H0V1229.27C0 1247.05 7.33221 1253.01 27.5184 1253.01H59.4724ZM147.911 1253.01L117.496 1206.89L145.92 1163.03H124.376L107.267 1192.09L90.34 1163.03H68.7055L97.1291 1206.89L66.8046 1253.01H88.6201L107.267 1221.69L126.096 1253.01H147.911ZM222.591 1193.63C222.591 1173.32 211.367 1163.03 192.81 1163.03H157.778V1253.01H175.43V1224.22H192.81C211.367 1224.22 222.591 1213.93 222.591 1193.63ZM204.94 1193.63C204.94 1204.73 199.871 1208.43 191.905 1208.43H175.43V1178.73H191.905C199.871 1178.73 204.94 1182.52 204.94 1193.63ZM293.017 1253.01V1237.3H266.132C257.804 1237.3 254.998 1235.23 254.998 1228.01V1163.03H237.346V1228.01C237.346 1245.79 246.036 1253.01 266.132 1253.01H293.017ZM373.218 1203.82C373.218 1176.3 362.175 1162.31 337.372 1162.31C312.026 1162.31 301.526 1176.3 301.526 1203.73V1210.32C301.526 1241 312.026 1253.73 337.372 1253.73C362.356 1253.73 373.218 1241 373.218 1210.68V1203.82ZM355.657 1210.32C355.657 1224.31 353.937 1238.12 337.372 1238.12C320.264 1238.12 319.268 1224.04 319.087 1210.32V1205.63C319.087 1190.56 320.897 1177.92 337.372 1177.92C353.575 1177.92 355.657 1190.56 355.657 1205.63V1210.32ZM457.041 1253.01L436.855 1216.73C445.635 1213.57 453.33 1204.45 453.33 1191.82C453.33 1175.58 442.467 1163.03 424.091 1163.03H409.065C394.038 1163.03 388.698 1169.26 388.698 1182.34V1253.01H406.349V1219.62H419.022L436.583 1253.01H457.041ZM435.678 1191.82C435.678 1198.77 430.609 1205 422.915 1205H406.349V1186.68C406.349 1182.16 408.612 1178.73 414.134 1178.73H422.915C430.609 1178.73 435.678 1183.61 435.678 1191.82ZM540.049 1253.01L511.082 1170.61C508.819 1164.2 505.922 1163.03 501.849 1163.03C497.594 1163.03 494.517 1164.57 491.892 1170.61L462.925 1253.01H481.301L486.279 1237.48H516.604L521.673 1253.01H540.049ZM512.53 1222.68H490.715L501.849 1187.04L512.53 1222.68ZM611.108 1178.73V1163.03H545.209V1178.73H569.287V1253.01H586.939V1178.73H611.108ZM690.947 1203.82C690.947 1176.3 679.904 1162.31 655.101 1162.31C629.755 1162.31 619.255 1176.3 619.255 1203.73V1210.32C619.255 1241 629.755 1253.73 655.101 1253.73C680.085 1253.73 690.947 1241 690.947 1210.68V1203.82ZM673.296 1210.32C673.296 1224.31 671.666 1238.12 655.101 1238.12C637.993 1238.12 636.997 1224.04 636.816 1210.32V1205.63C636.816 1190.56 638.626 1177.92 655.101 1177.92C671.304 1177.92 673.296 1190.56 673.296 1205.63V1210.32ZM774.679 1253.01L754.584 1216.73C763.274 1213.57 771.059 1204.45 771.059 1191.82C771.059 1175.58 760.106 1163.03 741.73 1163.03H726.794C711.767 1163.03 706.427 1169.26 706.427 1182.34V1253.01H723.988V1219.62H736.661L754.312 1253.01H774.679ZM753.407 1191.82C753.407 1198.77 748.338 1205 740.644 1205H723.988V1186.68C723.988 1182.16 726.341 1178.73 731.863 1178.73H740.644C748.338 1178.73 753.407 1183.61 753.407 1191.82ZM850.898 1163.03H831.708L815.142 1199.31L798.305 1163.03H779.115L806.271 1216.1V1253.01H823.742V1216.1L850.898 1163.03ZM946.851 1253.01V1237.3H919.966C911.547 1237.3 908.832 1235.23 908.832 1228.01V1163.03H891.18V1228.01C891.18 1245.79 899.78 1253.01 919.966 1253.01H946.851ZM1020.35 1253.01V1237.3H989.667C981.249 1237.3 978.533 1235.23 978.533 1228.01V1215.46H1006.5L1007.77 1199.85H978.533V1178.73H1020.35V1163.03H960.881V1229.27C960.881 1247.05 968.214 1253.01 988.4 1253.01H1020.35ZM1105.99 1253.01L1077.11 1170.61C1074.85 1164.2 1071.86 1163.03 1067.88 1163.03C1063.53 1163.03 1060.45 1164.57 1057.83 1170.61L1028.95 1253.01H1047.33L1052.22 1237.48H1082.54L1087.61 1253.01H1105.99ZM1078.47 1222.68H1056.65L1067.88 1187.04L1078.47 1222.68ZM1186.73 1253.01L1166.55 1216.73C1175.33 1213.57 1183.02 1204.45 1183.02 1191.82C1183.02 1175.58 1172.16 1163.03 1153.78 1163.03H1138.85C1123.73 1163.03 1118.39 1169.26 1118.39 1182.34V1253.01H1136.04V1219.62H1148.71L1166.27 1253.01H1186.73ZM1165.46 1191.82C1165.46 1198.77 1160.39 1205 1152.61 1205H1136.04V1186.68C1136.04 1182.16 1138.3 1178.73 1143.91 1178.73H1152.61C1160.39 1178.73 1165.46 1183.61 1165.46 1191.82ZM1271.64 1163.03H1253.99V1221.96L1216.97 1163.03H1200.04V1253.01H1217.6V1195.25L1248.83 1243.89C1253.9 1253.01 1259.24 1254 1263.13 1254C1267.66 1254 1271.64 1249.49 1271.64 1243.89V1163.03ZM1307.49 1253.01V1163.03H1289.83V1253.01H1307.49ZM1398.82 1163.03H1381.26V1221.96L1344.24 1163.03H1327.22V1253.01H1344.87V1195.25L1376.01 1243.89C1381.08 1253.01 1386.42 1254 1390.4 1254C1394.93 1254 1398.82 1249.49 1398.82 1243.89V1163.03ZM1411.5 1210.68C1411.5 1239.02 1421.81 1253.73 1447.79 1253.73C1461.46 1253.73 1474.05 1247.95 1479.48 1235.23V1208.06H1453.5V1222.68H1464.36V1228.73C1460.92 1235.68 1455.4 1238.12 1448.79 1238.12C1430.05 1238.12 1430.32 1223.23 1430.14 1208.06C1430.14 1192.9 1430.32 1177.92 1446.98 1177.92C1456.94 1177.92 1463.09 1182.34 1463.09 1192.99H1479.57C1479.57 1185.95 1478.03 1177.56 1472.6 1172.15C1466.26 1165.83 1457.3 1162.31 1446.98 1162.31C1424.35 1162.31 1411.5 1176.21 1411.5 1199.58V1210.68ZM1595.71 1253.01L1566.74 1170.61C1564.48 1164.2 1561.58 1163.03 1557.51 1163.03C1553.25 1163.03 1550.17 1164.57 1547.55 1170.61L1518.58 1253.01H1536.96L1541.94 1237.48H1572.26L1577.33 1253.01H1595.71ZM1568.19 1222.68H1546.37L1557.51 1187.04L1568.19 1222.68ZM1678.44 1163.03H1660.79V1221.96L1623.77 1163.03H1606.84V1253.01H1624.4V1195.25L1655.63 1243.89C1660.7 1253.01 1666.04 1254 1669.93 1254C1674.46 1254 1678.44 1249.49 1678.44 1243.89V1163.03ZM1765.07 1253.01L1736.19 1170.61C1733.93 1164.2 1731.03 1163.03 1726.96 1163.03C1722.62 1163.03 1719.63 1164.57 1716.91 1170.61L1688.04 1253.01H1706.41L1711.39 1237.48H1741.63L1746.69 1253.01H1765.07ZM1737.64 1222.68H1715.83L1726.96 1187.04L1737.64 1222.68ZM1833.14 1253.01V1237.3H1806.26C1797.93 1237.3 1795.12 1235.23 1795.12 1228.01V1163.03H1777.56V1228.01C1777.56 1245.79 1786.16 1253.01 1806.26 1253.01H1833.14ZM1908.82 1163.03H1889.72L1873.06 1199.31L1856.23 1163.03H1837.13L1864.19 1216.1V1253.01H1881.66V1216.1L1908.82 1163.03ZM1978.43 1178.73V1163.03H1912.53V1178.73H1936.61V1253.01H1954.17V1178.73H1978.43ZM2009.66 1253.01V1163.03H1992.1V1253.01H2009.66ZM2076.37 1218.17C2075.2 1230.17 2072.57 1238.12 2059.72 1238.12C2043.79 1238.12 2042.79 1225.12 2042.79 1212.94V1205.09C2042.79 1191.46 2043.24 1177.92 2059.72 1177.92C2070.49 1177.92 2074.2 1183.79 2075.83 1192.99H2092.3C2092.3 1172.24 2078.09 1162.31 2059.72 1162.31C2032.38 1162.31 2025.14 1181.26 2025.14 1205.63V1213.21C2025.14 1234.78 2032.38 1253.73 2059.72 1253.73C2080.54 1253.73 2092.67 1241.28 2092.67 1218.17H2076.37ZM2168.52 1226.47C2168.52 1210.14 2159.11 1202.47 2144.26 1200.48L2129.87 1198.95C2124.17 1198.14 2118.83 1194.89 2118.83 1188.93C2118.83 1182.8 2124.62 1177.56 2135.3 1177.56C2141.28 1177.56 2148.34 1179.73 2150.15 1188.57L2165.81 1187.85C2165.81 1172.51 2152.68 1162.31 2135.75 1162.31C2115.03 1162.31 2101.81 1173.5 2101.81 1189.56C2101.81 1205.09 2111.86 1212.67 2125.8 1214.74L2140.46 1216.28C2147.07 1217.27 2151.23 1220.7 2151.23 1227.02C2151.23 1234.15 2145.8 1238.12 2135.39 1238.12C2127.06 1238.12 2116.65 1233.51 2116.65 1223.68L2100.72 1224.49C2100.72 1246.33 2121.45 1253.73 2135.12 1253.73C2154.04 1253.73 2168.52 1243.89 2168.52 1226.47ZM2270.63 1178.73V1163.03H2204.73V1178.73H2228.81V1253.01H2246.46V1178.73H2270.63ZM2350.47 1203.82C2350.47 1176.3 2339.43 1162.31 2314.62 1162.31C2289.28 1162.31 2278.78 1176.3 2278.78 1203.73V1210.32C2278.78 1241 2289.28 1253.73 2314.62 1253.73C2339.61 1253.73 2350.47 1241 2350.47 1210.68V1203.82ZM2332.82 1210.32C2332.82 1224.31 2331.19 1238.12 2314.62 1238.12C2297.52 1238.12 2296.52 1224.04 2296.34 1210.32V1205.63C2296.34 1190.56 2298.15 1177.92 2314.62 1177.92C2330.83 1177.92 2332.82 1190.56 2332.82 1205.63V1210.32ZM2432.12 1203.82C2432.12 1176.3 2421.08 1162.31 2396.18 1162.31C2370.84 1162.31 2360.34 1176.3 2360.34 1203.73V1210.32C2360.34 1241 2370.84 1253.73 2396.18 1253.73C2421.17 1253.73 2432.12 1241 2432.12 1210.68V1203.82ZM2414.47 1210.32C2414.47 1224.31 2412.84 1238.12 2396.18 1238.12C2379.08 1238.12 2378.08 1224.04 2377.99 1210.32V1205.63C2377.99 1190.56 2379.71 1177.92 2396.18 1177.92C2412.48 1177.92 2414.47 1190.56 2414.47 1205.63V1210.32ZM2503.18 1253.01V1237.3H2476.29C2467.97 1237.3 2465.16 1235.23 2465.16 1228.01V1163.03H2447.51V1228.01C2447.51 1245.79 2456.2 1253.01 2476.29 1253.01H2503.18ZM2557.94 1205.36L2586.73 1163.03H2568.99L2534.86 1213.3V1163.03H2517.21V1253.01H2534.86V1235.41L2547.17 1218.98L2568.45 1253.01H2588.99L2557.94 1205.36ZM2619.14 1253.01V1163.03H2601.49V1253.01H2619.14ZM2698.89 1178.73V1163.03H2632.99V1178.73H2657.07V1253.01H2674.63V1178.73H2698.89ZM2801.36 1178.73V1163.03H2761.35C2747.04 1163.03 2741.97 1168.09 2741.97 1181.35V1253.01H2759.54V1216.46H2791.4L2792.67 1200.84H2759.54V1188.3C2759.54 1181.26 2762.07 1178.73 2769.58 1178.73H2801.36ZM2882.83 1203.82C2882.83 1176.3 2871.87 1162.31 2846.98 1162.31C2821.63 1162.31 2811.13 1176.3 2811.13 1203.73V1210.32C2811.13 1241 2821.63 1253.73 2846.98 1253.73C2871.96 1253.73 2882.83 1241 2882.83 1210.68V1203.82ZM2865.26 1210.32C2865.26 1224.31 2863.63 1238.12 2846.98 1238.12C2829.87 1238.12 2828.87 1224.04 2828.78 1210.32V1205.63C2828.78 1190.56 2830.5 1177.92 2846.98 1177.92C2863.18 1177.92 2865.26 1190.56 2865.26 1205.63V1210.32ZM2966.65 1253.01L2946.46 1216.73C2955.24 1213.57 2962.94 1204.45 2962.94 1191.82C2962.94 1175.58 2952.07 1163.03 2933.7 1163.03H2918.76C2903.64 1163.03 2898.3 1169.26 2898.3 1182.34V1253.01H2915.96V1219.62H2928.63L2946.19 1253.01H2966.65ZM2945.38 1191.82C2945.38 1198.77 2940.31 1205 2932.52 1205H2915.96V1186.68C2915.96 1182.16 2918.22 1178.73 2923.83 1178.73H2932.52C2940.31 1178.73 2945.38 1183.61 2945.38 1191.82ZM3071.47 1226.47C3071.47 1210.14 3062.06 1202.47 3047.21 1200.48L3032.82 1198.95C3027.12 1198.14 3021.78 1194.89 3021.78 1188.93C3021.78 1182.8 3027.57 1177.56 3038.25 1177.56C3044.22 1177.56 3051.28 1179.73 3053.1 1188.57L3068.76 1187.85C3068.76 1172.51 3055.63 1162.31 3038.7 1162.31C3017.97 1162.31 3004.76 1173.5 3004.76 1189.56C3004.76 1205.09 3014.8 1212.67 3028.75 1214.74L3043.41 1216.28C3050.02 1217.27 3054.18 1220.7 3054.18 1227.02C3054.18 1234.15 3048.75 1238.12 3038.34 1238.12C3030.01 1238.12 3019.6 1233.51 3019.6 1223.68L3003.67 1224.49C3003.67 1246.33 3024.4 1253.73 3038.07 1253.73C3056.99 1253.73 3071.47 1243.89 3071.47 1226.47ZM3144.16 1178.73V1163.03H3078.26V1178.73H3102.34V1253.01H3119.99V1178.73H3144.16ZM3224.18 1163.03H3206.62V1221.51C3206.62 1233.15 3199.2 1238.12 3189.69 1238.12C3180.19 1238.12 3172.85 1233.15 3172.85 1221.51V1163.03H3155.2V1222.14C3155.2 1242.54 3171.13 1253.73 3189.69 1253.73C3208.16 1253.73 3224.18 1242.54 3224.18 1222.14V1163.03ZM3310.54 1207.61C3310.18 1194.17 3311.62 1181.71 3301.49 1171.6C3295.51 1165.74 3287 1163.03 3277.59 1163.03H3242.56V1229.36C3242.56 1247.05 3250.25 1253.01 3276.32 1253.01C3285.73 1253.01 3295.51 1250.39 3301.49 1244.43C3309.18 1236.67 3310.18 1227.38 3310.72 1217.36L3310.54 1207.61ZM3292.98 1207.61C3292.98 1221.33 3292.43 1227.74 3289.17 1231.8C3286.1 1235.41 3282.02 1237.3 3275.96 1237.3C3263.92 1237.3 3260.12 1235.23 3260.12 1228.46V1178.73H3275.96C3282.02 1178.73 3286.1 1180.63 3289.17 1184.24C3292.43 1188.3 3292.98 1193.99 3292.98 1207.61ZM3385.49 1253.01V1237.3H3354.8C3346.47 1237.3 3343.67 1235.23 3343.67 1228.01V1215.46H3371.64L3372.91 1199.85H3343.67V1178.73H3385.49V1163.03H3326.02V1229.27C3326.02 1247.05 3333.35 1253.01 3353.53 1253.01H3385.49ZM3473.02 1163.03H3455.46V1221.96L3418.44 1163.03H3401.42V1253.01H3419.07V1195.25L3450.21 1243.89C3455.28 1253.01 3460.62 1254 3464.51 1254C3469.13 1254 3473.02 1249.49 3473.02 1243.89V1163.03ZM3549.97 1178.73V1163.03H3484.07V1178.73H3508.14V1253.01H3525.8V1178.73H3549.97ZM3624.46 1226.47C3624.46 1210.14 3615.14 1202.47 3600.3 1200.48L3585.81 1198.95C3580.11 1198.14 3574.77 1194.89 3574.77 1188.93C3574.77 1182.8 3580.65 1177.56 3591.24 1177.56C3597.22 1177.56 3604.37 1179.73 3606.09 1188.57L3621.84 1187.85C3621.84 1172.51 3608.62 1162.31 3591.79 1162.31C3570.97 1162.31 3557.84 1173.5 3557.84 1189.56C3557.84 1205.09 3567.8 1212.67 3581.74 1214.74L3596.49 1216.28C3603.1 1217.27 3607.27 1220.7 3607.27 1227.02C3607.27 1234.15 3601.83 1238.12 3591.42 1238.12C3583.01 1238.12 3572.69 1233.51 3572.69 1223.68L3556.66 1224.49C3556.66 1246.33 3577.48 1253.73 3591.15 1253.73C3610.07 1253.73 3624.46 1243.89 3624.46 1226.47Z" fill="#5F5F5F"/>
<path d="M1702.99 886.541V754.061H1444.88C1374.83 754.061 1351.23 736.55 1351.23 675.639V569.808H1586.5L1597.16 438.089H1351.23V259.926H1702.99V127.446H1202.76V686.299C1202.76 836.29 1264.43 886.541 1434.22 886.541H1702.99ZM2315.9 886.541V754.061H2089.77C2019.72 754.061 1996.12 736.55 1996.12 675.639V127.446H1847.65V675.639C1847.65 825.631 1919.98 886.541 2089.77 886.541H2315.9ZM3009.51 886.541L2766.63 191.402C2747.6 137.344 2723.24 127.446 2688.97 127.446C2652.43 127.446 2627.3 140.389 2604.46 191.402L2361.58 886.541H2516.14L2558.02 755.584H2812.32L2854.95 886.541H3009.51ZM2778.06 630.718H2595.32L2688.97 329.973L2778.06 630.718ZM3625.47 662.696C3625.47 524.886 3547.05 460.169 3422.18 443.419L3300.36 430.475C3252.39 423.623 3208.23 396.213 3208.23 345.962C3208.23 294.188 3256.96 250.028 3346.81 250.028C3396.3 250.028 3456.44 268.301 3470.91 342.916L3603.39 336.825C3603.39 207.391 3492.23 121.355 3350.61 121.355C3176.26 121.355 3065.1 215.766 3065.1 351.292C3065.1 482.249 3149.61 546.205 3266.86 563.717L3390.2 576.66C3445.79 585.035 3480.81 613.968 3480.81 667.264C3480.81 727.413 3435.13 760.914 3347.57 760.914C3277.52 760.914 3189.96 722.083 3189.96 639.093L3055.2 645.946C3055.2 830.199 3230.31 892.632 3345.28 892.632C3504.41 892.632 3625.47 809.642 3625.47 662.696Z" fill="url(#paint0_linear_501_10)"/>
<path d="M697.472 272.061C607.811 148.056 434.613 120.214 310.597 209.875C186.592 299.536 158.75 472.757 248.411 596.762C327.797 706.57 472.683 740.903 590.932 685.104C589.624 689.381 590.221 694.197 593.053 698.142C595.368 701.331 598.853 703.471 602.743 704.095C606.634 704.718 610.613 703.773 613.808 701.467L816.385 1007.01C823.357 1016.65 849.743 1009.46 875.36 990.953C900.955 972.457 916.057 949.626 909.073 939.993L682.416 651.872C689.055 647.068 690.557 637.768 685.73 631.106C684.389 629.249 682.633 627.731 680.603 626.672C678.572 625.613 676.323 625.042 674.033 625.005C764.073 530.196 776.881 381.869 697.472 272.061ZM616.847 633.433C506.924 712.911 353.392 688.234 273.913 578.3C194.435 468.4 219.124 314.856 329.036 235.389C438.959 155.9 592.491 180.588 671.958 290.511C751.447 400.434 726.77 553.967 616.847 633.433ZM1064.81 172.974L1053.11 159.202L983.632 218.177C975.448 210.579 964.698 206.349 953.531 206.332C943.887 206.332 935.023 209.451 927.707 214.657L761.137 63.865C763.804 58.0831 765.193 51.7936 765.208 45.426C765.303 39.4951 764.217 33.6046 762.013 28.0976C759.809 22.5906 756.531 17.5772 752.37 13.3494C748.21 9.12166 743.25 5.76405 737.779 3.47218C732.308 1.18031 726.435 0 720.503 0C714.572 0 708.699 1.18031 703.228 3.47218C697.757 5.76405 692.797 9.12166 688.637 13.3494C684.476 17.5772 681.198 22.5906 678.994 28.0976C676.79 33.6046 675.704 39.4951 675.799 45.426C675.799 57.8907 680.925 69.1513 689.158 77.2586L617.466 184.269L632.488 194.314L704.364 87.0055C709.386 88.9549 714.799 90.1246 720.509 90.1246C731.572 90.0987 742.227 85.9393 750.381 78.4626L915.461 227.89C911.17 234.844 908.881 242.847 908.844 251.019C909.167 262.66 914.019 273.717 922.367 281.837C930.716 289.957 941.902 294.5 953.548 294.5C965.194 294.5 976.381 289.957 984.73 281.837C993.078 273.717 997.93 262.66 998.253 251.019C998.253 244.517 996.796 238.371 994.285 232.798L1064.81 172.974ZM720.498 72.8781C713.217 72.8781 706.234 69.9859 701.086 64.8376C695.938 59.6893 693.046 52.7068 693.046 45.426C693.046 38.1453 695.938 31.1627 701.086 26.0144C706.234 20.8662 713.217 17.9739 720.498 17.9739C727.779 17.9739 734.761 20.8662 739.909 26.0144C745.058 31.1627 747.95 38.1453 747.95 45.426C747.95 52.7068 745.058 59.6893 739.909 64.8376C734.761 69.9859 727.779 72.8781 720.498 72.8781ZM953.531 278.494C946.25 278.491 939.269 275.596 934.123 270.445C928.977 265.295 926.087 258.311 926.091 251.03C926.094 243.749 928.989 236.768 934.139 231.622C939.29 226.476 946.273 223.587 953.554 223.59C957.159 223.591 960.729 224.303 964.059 225.684C967.389 227.065 970.414 229.088 972.962 231.638C975.51 234.188 977.531 237.216 978.909 240.547C980.288 243.878 980.996 247.448 980.995 251.053C980.993 254.658 980.282 258.228 978.901 261.558C977.52 264.888 975.496 267.913 972.946 270.461C970.396 273.009 967.369 275.03 964.038 276.409C960.706 277.787 957.136 278.495 953.531 278.494ZM265.634 235.985L156.067 136.818C160.455 129.807 162.795 121.708 162.821 113.437C162.821 101.579 158.11 90.2071 149.725 81.8223C141.341 73.4376 129.968 68.7271 118.111 68.7271C106.253 68.7271 94.8806 73.4376 86.4959 81.8223C78.1111 90.2071 73.4006 101.579 73.4006 113.437C73.4006 120.638 75.2697 127.347 78.2856 133.378L0 199.818L11.6849 213.579L89.5003 147.529C97.482 154.338 107.619 158.096 118.111 158.136C127.663 158.136 136.469 155.085 143.728 149.994L253.514 249.368L265.634 235.985ZM90.67 113.437C90.6685 106.158 93.5587 99.1762 98.7048 94.0279C103.851 88.8796 110.831 85.9865 118.111 85.985C125.39 85.9835 132.372 88.8737 137.52 94.0198C142.668 99.1659 145.561 106.146 145.563 113.426C145.564 120.705 142.674 127.687 137.528 132.835C132.382 137.983 125.401 140.876 118.122 140.878C110.843 140.879 103.861 137.989 98.7129 132.843C93.5646 127.697 90.6715 120.716 90.67 113.437ZM594.945 236.054C581.299 227.133 568.857 221.973 567.172 224.553L512.451 308.216C492.893 298.839 471.17 294.904 449.566 296.823C427.961 298.741 407.272 306.444 389.673 319.122L322.683 257.371C320.584 255.434 309.931 263.587 298.877 275.581C287.823 287.564 280.553 298.859 282.651 300.786L351.431 364.187C343.155 380.851 338.842 399.201 338.828 417.807C338.828 484.901 393.217 539.289 460.31 539.289C527.404 539.289 581.792 484.901 581.792 417.807C581.792 390.951 572.963 366.205 558.205 346.104L616.583 256.878V256.867C618.28 254.31 608.579 244.976 594.945 236.054ZM460.322 494.235C440.052 494.235 420.612 486.183 406.279 471.85C391.946 457.517 383.894 438.077 383.894 417.807C383.894 397.537 391.946 378.097 406.279 363.764C420.612 349.431 440.052 341.379 460.322 341.379C480.592 341.379 500.031 349.431 514.365 363.764C528.698 378.097 536.75 397.537 536.75 417.807C536.75 438.077 528.698 457.517 514.365 471.85C500.031 486.183 480.592 494.235 460.322 494.235Z" fill="url(#paint1_linear_501_10)"/>
<defs>
<linearGradient id="paint0_linear_501_10" x1="1212.2" y1="453.058" x2="3598.85" y2="458.452" gradientUnits="userSpaceOnUse">
<stop offset="0.75616" stop-color="#626262"/>
<stop offset="0.771273" stop-color="#FF6500"/>
</linearGradient>
<linearGradient id="paint1_linear_501_10" x1="-28.7459" y1="13.1003" x2="881.845" y2="995.11" gradientUnits="userSpaceOnUse">
<stop offset="0.515625" stop-color="#FF6500"/>
<stop offset="1" stop-color="#522000"/>
</linearGradient>
</defs>
</svg>
